<svg width="1200" height="630" viewBox="0 0 1200 630" fill="none" xmlns="http://www.w3.org/2000/svg">
<path d="M0 0H1200V630H0V0Z" fill="#0F0F12"/>
<path d="M110 73H1090V273H110V73Z" fill="#2EC4B6"/>
<path d="M1190 173C1190 228.228 1145.23 273 1090 273C1034.77 273 990 228.228 990 173C990 117.772 1034.77 73 1090 73C1145.23 73 1190 117.772 1190 173Z" fill="#2EC4B6"/>
<path d="M210 173C210 228.228 165.228 273 110 273C54.7715 273 10 228.228 10 173C10 117.772 54.7715 73 110 73C165.228 73 210 117.772 210 173Z" fill="#2EC4B6"/>
<path d="M110 88H1090V258H110V88Z" fill="#FDFFFC"/>
<path d="M1175 173C1175 219.944 1136.94 258 1090 258C1043.06 258 1005 219.944 1005 173C1005 126.056 1043.06 88 1090 88C1136.94 88 1175 126.056 1175 173Z" fill="#FDFFFC"/>
<path d="M195 173C195 219.944 156.944 258 110 258C63.0558 258 25 219.944 25 173C25 126.056 63.0558 88 110 88C156.944 88 195 126.056 195 173Z" fill="#FDFFFC"/>
<path d="M106.38 220.704C98.4277 220.704 90.807 219.663 83.5177 217.58C76.2284 215.403 70.359 212.61 65.9097 209.202L73.7197 191.878C77.9797 194.907 82.9971 197.416 88.7717 199.404C94.6411 201.297 100.558 202.244 106.522 202.244C111.066 202.244 114.71 201.818 117.456 200.966C120.296 200.019 122.378 198.741 123.704 197.132C125.029 195.523 125.692 193.677 125.692 191.594C125.692 188.943 124.65 186.861 122.568 185.346C120.485 183.737 117.74 182.459 114.332 181.512C110.924 180.471 107.137 179.524 102.972 178.672C98.9011 177.725 94.783 176.589 90.6177 175.264C86.547 173.939 82.8077 172.235 79.3997 170.152C75.9917 168.069 73.199 165.324 71.0217 161.916C68.939 158.508 67.8977 154.153 67.8977 148.852C67.8977 143.172 69.4124 138.013 72.4417 133.374C75.5657 128.641 80.2044 124.901 86.3577 122.156C92.6057 119.316 100.416 117.896 109.788 117.896C116.036 117.896 122.189 118.653 128.248 120.168C134.306 121.588 139.655 123.765 144.294 126.7L137.194 144.166C132.555 141.515 127.916 139.575 123.278 138.344C118.639 137.019 114.095 136.356 109.646 136.356C105.196 136.356 101.552 136.877 98.7117 137.918C95.8717 138.959 93.8364 140.332 92.6057 142.036C91.375 143.645 90.7597 145.539 90.7597 147.716C90.7597 150.272 91.8011 152.355 93.8837 153.964C95.9664 155.479 98.7117 156.709 102.12 157.656C105.528 158.603 109.267 159.549 113.338 160.496C117.503 161.443 121.621 162.531 125.692 163.762C129.857 164.993 133.644 166.649 137.052 168.732C140.46 170.815 143.205 173.56 145.288 176.968C147.465 180.376 148.554 184.683 148.554 189.89C148.554 195.475 146.992 200.587 143.868 205.226C140.744 209.865 136.058 213.604 129.81 216.444C123.656 219.284 115.846 220.704 106.38 220.704Z" fill="#E8702A"/>
<path d="M161.432 219V119.6H236.55V138.06H184.294V200.54H238.396V219H161.432ZM182.59 177.536V159.644H230.444V177.536H182.59Z" fill="#E8702A"/>
<path d="M286.52 220.704C278.568 220.704 270.947 219.663 263.658 217.58C256.369 215.403 250.499 212.61 246.05 209.202L253.86 191.878C258.12 194.907 263.137 197.416 268.912 199.404C274.781 201.297 280.698 202.244 286.662 202.244C291.206 202.244 294.851 201.818 297.596 200.966C300.436 200.019 302.519 198.741 303.844 197.132C305.169 195.523 305.832 193.677 305.832 191.594C305.832 188.943 304.791 186.861 302.708 185.346C300.625 183.737 297.88 182.459 294.472 181.512C291.064 180.471 287.277 179.524 283.112 178.672C279.041 177.725 274.923 176.589 270.758 175.264C266.687 173.939 262.948 172.235 259.54 170.152C256.132 168.069 253.339 165.324 251.162 161.916C249.079 158.508 248.038 154.153 248.038 148.852C248.038 143.172 249.553 138.013 252.582 133.374C255.706 128.641 260.345 124.901 266.498 122.156C272.746 119.316 280.556 117.896 289.928 117.896C296.176 117.896 302.329 118.653 308.388 120.168C314.447 121.588 319.795 123.765 324.434 126.7L317.334 144.166C312.695 141.515 308.057 139.575 303.418 138.344C298.779 137.019 294.235 136.356 289.786 136.356C285.337 136.356 281.692 136.877 278.852 137.918C276.012 138.959 273.977 140.332 272.746 142.036C271.515 143.645 270.9 145.539 270.9 147.716C270.9 150.272 271.941 152.355 274.024 153.964C276.107 155.479 278.852 156.709 282.26 157.656C285.668 158.603 289.407 159.549 293.478 160.496C297.643 161.443 301.761 162.531 305.832 163.762C309.997 164.993 313.784 166.649 317.192 168.732C320.6 170.815 323.345 173.56 325.428 176.968C327.605 180.376 328.694 184.683 328.694 189.89C328.694 195.475 327.132 200.587 324.008 205.226C320.884 209.865 316.198 213.604 309.95 216.444C303.797 219.284 295.987 220.704 286.52 220.704Z" fill="#E8702A"/>
<path d="M378.948 219V119.6H401.952V219H378.948Z" fill="#E8702A"/>
<path d="M421.139 219V142.604H442.297V163.762L438.321 157.372C441.067 152.26 444.995 148.331 450.107 145.586C455.219 142.841 461.041 141.468 467.573 141.468C473.632 141.468 479.028 142.699 483.761 145.16C488.589 147.527 492.376 151.219 495.121 156.236C497.867 161.159 499.239 167.501 499.239 175.264V219H477.087V178.672C477.087 172.519 475.715 167.975 472.969 165.04C470.319 162.105 466.532 160.638 461.609 160.638C458.107 160.638 454.935 161.395 452.095 162.91C449.35 164.33 447.173 166.555 445.563 169.584C444.049 172.613 443.291 176.495 443.291 181.228V219H421.139Z" fill="#E8702A"/>
<path d="M547.719 220.136C538.726 220.136 531.72 217.864 526.703 213.32C521.686 208.681 519.177 201.818 519.177 192.73V125.706H541.329V192.446C541.329 195.665 542.181 198.173 543.885 199.972C545.589 201.676 547.908 202.528 550.843 202.528C554.346 202.528 557.328 201.581 559.789 199.688L565.753 215.308C563.481 216.917 560.736 218.148 557.517 219C554.393 219.757 551.127 220.136 547.719 220.136ZM507.391 159.644V142.604H560.357V159.644H507.391Z" fill="#E8702A"/>
<path d="M610.905 220.136C602.195 220.136 594.527 218.432 587.901 215.024C581.369 211.616 576.304 206.977 572.707 201.108C569.109 195.144 567.311 188.375 567.311 180.802C567.311 173.134 569.062 166.365 572.565 160.496C576.162 154.532 581.037 149.893 587.191 146.58C593.344 143.172 600.302 141.468 608.065 141.468C615.543 141.468 622.265 143.077 628.229 146.296C634.287 149.42 639.068 153.964 642.571 159.928C646.073 165.797 647.825 172.85 647.825 181.086C647.825 181.938 647.777 182.932 647.683 184.068C647.588 185.109 647.493 186.103 647.399 187.05H585.345V174.128H635.755L627.235 177.962C627.235 173.986 626.43 170.531 624.821 167.596C623.211 164.661 620.987 162.389 618.147 160.78C615.307 159.076 611.993 158.224 608.207 158.224C604.42 158.224 601.059 159.076 598.125 160.78C595.285 162.389 593.06 164.709 591.451 167.738C589.841 170.673 589.037 174.175 589.037 178.246V181.654C589.037 185.819 589.936 189.511 591.735 192.73C593.628 195.854 596.231 198.268 599.545 199.972C602.953 201.581 606.929 202.386 611.473 202.386C615.543 202.386 619.093 201.771 622.123 200.54C625.247 199.309 628.087 197.463 630.643 195.002L642.429 207.782C638.926 211.758 634.524 214.835 629.223 217.012C623.921 219.095 617.815 220.136 610.905 220.136Z" fill="#E8702A"/>
<path d="M659.733 219V142.604H680.891V164.188L677.909 157.94C680.181 152.544 683.825 148.473 688.843 145.728C693.86 142.888 699.966 141.468 707.161 141.468V161.916C706.214 161.821 705.362 161.774 704.605 161.774C703.847 161.679 703.043 161.632 702.191 161.632C696.132 161.632 691.209 163.383 687.423 166.886C683.731 170.294 681.885 175.643 681.885 182.932V219H659.733Z" fill="#E8702A"/>
<path d="M759.36 219V204.09L757.94 200.824V174.128C757.94 169.395 756.473 165.703 753.538 163.052C750.698 160.401 746.296 159.076 740.332 159.076C736.261 159.076 732.238 159.739 728.262 161.064C724.381 162.295 721.067 163.999 718.322 166.176L710.37 150.698C714.535 147.763 719.553 145.491 725.422 143.882C731.291 142.273 737.255 141.468 743.314 141.468C754.958 141.468 763.999 144.213 770.436 149.704C776.873 155.195 780.092 163.762 780.092 175.406V219H759.36ZM736.072 220.136C730.108 220.136 724.996 219.142 720.736 217.154C716.476 215.071 713.21 212.279 710.938 208.776C708.666 205.273 707.53 201.345 707.53 196.99C707.53 192.446 708.619 188.47 710.796 185.062C713.068 181.654 716.618 179.003 721.446 177.11C726.274 175.122 732.569 174.128 740.332 174.128H760.638V187.05H742.746C737.539 187.05 733.942 187.902 731.954 189.606C730.061 191.31 729.114 193.44 729.114 195.996C729.114 198.836 730.203 201.108 732.38 202.812C734.652 204.421 737.729 205.226 741.61 205.226C745.302 205.226 748.615 204.374 751.55 202.67C754.485 200.871 756.615 198.268 757.94 194.86L761.348 205.084C759.739 210.007 756.804 213.746 752.544 216.302C748.284 218.858 742.793 220.136 736.072 220.136Z" fill="#E8702A"/>
<path d="M834.775 220.136C826.539 220.136 819.203 218.479 812.765 215.166C806.328 211.758 801.263 207.072 797.571 201.108C793.974 195.144 792.175 188.375 792.175 180.802C792.175 173.134 793.974 166.365 797.571 160.496C801.263 154.532 806.328 149.893 812.765 146.58C819.203 143.172 826.539 141.468 834.775 141.468C842.822 141.468 849.827 143.172 855.791 146.58C861.755 149.893 866.157 154.674 868.997 160.922L851.815 170.152C849.827 166.555 847.319 163.904 844.289 162.2C841.355 160.496 838.136 159.644 834.633 159.644C830.847 159.644 827.439 160.496 824.409 162.2C821.38 163.904 818.966 166.318 817.167 169.442C815.463 172.566 814.611 176.353 814.611 180.802C814.611 185.251 815.463 189.038 817.167 192.162C818.966 195.286 821.38 197.7 824.409 199.404C827.439 201.108 830.847 201.96 834.633 201.96C838.136 201.96 841.355 201.155 844.289 199.546C847.319 197.842 849.827 195.144 851.815 191.452L868.997 200.824C866.157 206.977 861.755 211.758 855.791 215.166C849.827 218.479 842.822 220.136 834.775 220.136Z" fill="#E8702A"/>
<path d="M911.261 220.136C902.268 220.136 895.263 217.864 890.245 213.32C885.228 208.681 882.719 201.818 882.719 192.73V125.706H904.871V192.446C904.871 195.665 905.723 198.173 907.427 199.972C909.131 201.676 911.451 202.528 914.385 202.528C917.888 202.528 920.87 201.581 923.331 199.688L929.295 215.308C927.023 216.917 924.278 218.148 921.059 219C917.935 219.757 914.669 220.136 911.261 220.136ZM870.933 159.644V142.604H923.899V159.644H870.933Z" fill="#E8702A"/>
<path d="M938.89 219V142.604H961.042V219H938.89ZM949.966 131.954C945.896 131.954 942.582 130.771 940.026 128.404C937.47 126.037 936.192 123.103 936.192 119.6C936.192 116.097 937.47 113.163 940.026 110.796C942.582 108.429 945.896 107.246 949.966 107.246C954.037 107.246 957.35 108.382 959.906 110.654C962.462 112.831 963.74 115.671 963.74 119.174C963.74 122.866 962.462 125.943 959.906 128.404C957.445 130.771 954.132 131.954 949.966 131.954Z" fill="#E8702A"/>
<path d="M999.493 219L967.401 142.604H990.263L1016.96 208.35H1005.6L1033.29 142.604H1054.59L1022.36 219H999.493Z" fill="#E8702A"/>
<path d="M1096.62 220.136C1087.91 220.136 1080.24 218.432 1073.62 215.024C1067.09 211.616 1062.02 206.977 1058.42 201.108C1054.83 195.144 1053.03 188.375 1053.03 180.802C1053.03 173.134 1054.78 166.365 1058.28 160.496C1061.88 154.532 1066.75 149.893 1072.91 146.58C1079.06 143.172 1086.02 141.468 1093.78 141.468C1101.26 141.468 1107.98 143.077 1113.95 146.296C1120 149.42 1124.79 153.964 1128.29 159.928C1131.79 165.797 1133.54 172.85 1133.54 181.086C1133.54 181.938 1133.49 182.932 1133.4 184.068C1133.31 185.109 1133.21 186.103 1133.12 187.05H1071.06V174.128H1121.47L1112.95 177.962C1112.95 173.986 1112.15 170.531 1110.54 167.596C1108.93 164.661 1106.7 162.389 1103.86 160.78C1101.02 159.076 1097.71 158.224 1093.92 158.224C1090.14 158.224 1086.78 159.076 1083.84 160.78C1081 162.389 1078.78 164.709 1077.17 167.738C1075.56 170.673 1074.75 174.175 1074.75 178.246V181.654C1074.75 185.819 1075.65 189.511 1077.45 192.73C1079.35 195.854 1081.95 198.268 1085.26 199.972C1088.67 201.581 1092.65 202.386 1097.19 202.386C1101.26 202.386 1104.81 201.771 1107.84 200.54C1110.96 199.309 1113.8 197.463 1116.36 195.002L1128.15 207.782C1124.64 211.758 1120.24 214.835 1114.94 217.012C1109.64 219.095 1103.53 220.136 1096.62 220.136Z" fill="#E8702A"/>
<path d="M203.563 336L220.573 298.2H227.485L244.549 336H237.205L222.571 301.926H225.379L210.799 336H203.563ZM211.393 327.252L213.283 321.744H233.695L235.585 327.252H211.393Z" fill="#2EC4B6"/>
<path d="M247.628 336V307.164H254.054V314.94L252.92 312.564C253.928 310.728 255.386 309.324 257.294 308.352C259.238 307.344 261.47 306.84 263.99 306.84C266.294 306.84 268.346 307.29 270.146 308.19C271.982 309.09 273.422 310.476 274.466 312.348C275.51 314.184 276.032 316.56 276.032 319.476V336H269.282V320.34C269.282 317.784 268.67 315.876 267.446 314.616C266.258 313.356 264.584 312.726 262.424 312.726C260.84 312.726 259.436 313.05 258.212 313.698C256.988 314.346 256.034 315.318 255.35 316.614C254.702 317.874 254.378 319.476 254.378 321.42V336H247.628Z" fill="#2EC4B6"/>
<path d="M297.359 336V307.164H304.109V336H297.359ZM300.761 302.412C299.501 302.412 298.457 302.016 297.629 301.224C296.837 300.432 296.441 299.478 296.441 298.362C296.441 297.21 296.837 296.256 297.629 295.5C298.457 294.708 299.501 294.312 300.761 294.312C302.021 294.312 303.047 294.69 303.839 295.446C304.667 296.166 305.081 297.084 305.081 298.2C305.081 299.388 304.685 300.396 303.893 301.224C303.101 302.016 302.057 302.412 300.761 302.412Z" fill="#2EC4B6"/>
<path d="M311.888 336V307.164H318.314V314.94L317.18 312.564C318.188 310.728 319.646 309.324 321.554 308.352C323.498 307.344 325.73 306.84 328.25 306.84C330.554 306.84 332.606 307.29 334.406 308.19C336.242 309.09 337.682 310.476 338.726 312.348C339.77 314.184 340.292 316.56 340.292 319.476V336H333.542V320.34C333.542 317.784 332.93 315.876 331.706 314.616C330.518 313.356 328.844 312.726 326.684 312.726C325.1 312.726 323.696 313.05 322.472 313.698C321.248 314.346 320.294 315.318 319.61 316.614C318.962 317.874 318.638 319.476 318.638 321.42V336H311.888Z" fill="#2EC4B6"/>
<path d="M360.032 336.378C357.26 336.378 354.758 335.766 352.526 334.542C350.33 333.282 348.602 331.554 347.342 329.358C346.082 327.162 345.452 324.57 345.452 321.582C345.452 318.594 346.082 316.002 347.342 313.806C348.602 311.61 350.33 309.9 352.526 308.676C354.758 307.452 357.26 306.84 360.032 306.84C362.444 306.84 364.604 307.38 366.512 308.46C368.42 309.504 369.932 311.106 371.048 313.266C372.164 315.426 372.722 318.198 372.722 321.582C372.722 324.93 372.182 327.702 371.102 329.898C370.022 332.058 368.528 333.678 366.62 334.758C364.712 335.838 362.516 336.378 360.032 336.378ZM360.842 330.6C362.462 330.6 363.902 330.24 365.162 329.52C366.458 328.8 367.484 327.756 368.24 326.388C369.032 325.02 369.428 323.418 369.428 321.582C369.428 319.71 369.032 318.108 368.24 316.776C367.484 315.408 366.458 314.364 365.162 313.644C363.902 312.924 362.462 312.564 360.842 312.564C359.222 312.564 357.764 312.924 356.468 313.644C355.208 314.364 354.182 315.408 353.39 316.776C352.634 318.108 352.256 319.71 352.256 321.582C352.256 323.418 352.634 325.02 353.39 326.388C354.182 327.756 355.208 328.8 356.468 329.52C357.764 330.24 359.222 330.6 360.842 330.6ZM369.59 336V329.196L369.86 321.528L369.32 313.86V295.932H376.016V336H369.59Z" fill="#2EC4B6"/>
<path d="M397.374 336.378C394.17 336.378 391.362 335.748 388.95 334.488C386.574 333.192 384.72 331.428 383.388 329.196C382.092 326.964 381.444 324.426 381.444 321.582C381.444 318.702 382.074 316.164 383.334 313.968C384.63 311.736 386.394 309.99 388.626 308.73C390.894 307.47 393.468 306.84 396.348 306.84C399.156 306.84 401.658 307.452 403.854 308.676C406.05 309.9 407.778 311.628 409.038 313.86C410.298 316.092 410.928 318.72 410.928 321.744C410.928 322.032 410.91 322.356 410.874 322.716C410.874 323.076 410.856 323.418 410.82 323.742H386.79V319.26H407.256L404.61 320.664C404.646 319.008 404.304 317.55 403.584 316.29C402.864 315.03 401.874 314.04 400.614 313.32C399.39 312.6 397.968 312.24 396.348 312.24C394.692 312.24 393.234 312.6 391.974 313.32C390.75 314.04 389.778 315.048 389.058 316.344C388.374 317.604 388.032 319.098 388.032 320.826V321.906C388.032 323.634 388.428 325.164 389.22 326.496C390.012 327.828 391.128 328.854 392.568 329.574C394.008 330.294 395.664 330.654 397.536 330.654C399.156 330.654 400.614 330.402 401.91 329.898C403.206 329.394 404.358 328.602 405.366 327.522L408.984 331.68C407.688 333.192 406.05 334.362 404.07 335.19C402.126 335.982 399.894 336.378 397.374 336.378Z" fill="#2EC4B6"/>
<path d="M432.316 336.378C429.976 336.378 427.834 335.838 425.89 334.758C423.982 333.678 422.452 332.058 421.3 329.898C420.184 327.702 419.626 324.93 419.626 321.582C419.626 318.198 420.166 315.426 421.246 313.266C422.362 311.106 423.874 309.504 425.782 308.46C427.69 307.38 429.868 306.84 432.316 306.84C435.16 306.84 437.662 307.452 439.822 308.676C442.018 309.9 443.746 311.61 445.006 313.806C446.302 316.002 446.95 318.594 446.95 321.582C446.95 324.57 446.302 327.18 445.006 329.412C443.746 331.608 442.018 333.318 439.822 334.542C437.662 335.766 435.16 336.378 432.316 336.378ZM416.332 346.476V307.164H422.758V313.968L422.542 321.636L423.082 329.304V346.476H416.332ZM431.56 330.6C433.18 330.6 434.62 330.24 435.88 329.52C437.176 328.8 438.202 327.756 438.958 326.388C439.714 325.02 440.092 323.418 440.092 321.582C440.092 319.71 439.714 318.108 438.958 316.776C438.202 315.408 437.176 314.364 435.88 313.644C434.62 312.924 433.18 312.564 431.56 312.564C429.94 312.564 428.482 312.924 427.186 313.644C425.89 314.364 424.864 315.408 424.108 316.776C423.352 318.108 422.974 319.71 422.974 321.582C422.974 323.418 423.352 325.02 424.108 326.388C424.864 327.756 425.89 328.8 427.186 329.52C428.482 330.24 429.94 330.6 431.56 330.6Z" fill="#2EC4B6"/>
<path d="M465.825 336.378C462.621 336.378 459.813 335.748 457.401 334.488C455.025 333.192 453.171 331.428 451.839 329.196C450.543 326.964 449.895 324.426 449.895 321.582C449.895 318.702 450.525 316.164 451.785 313.968C453.081 311.736 454.845 309.99 457.077 308.73C459.345 307.47 461.919 306.84 464.799 306.84C467.607 306.84 470.109 307.452 472.305 308.676C474.501 309.9 476.229 311.628 477.489 313.86C478.749 316.092 479.379 318.72 479.379 321.744C479.379 322.032 479.361 322.356 479.325 322.716C479.325 323.076 479.307 323.418 479.271 323.742H455.241V319.26H475.707L473.061 320.664C473.097 319.008 472.755 317.55 472.035 316.29C471.315 315.03 470.325 314.04 469.065 313.32C467.841 312.6 466.419 312.24 464.799 312.24C463.143 312.24 461.685 312.6 460.425 313.32C459.201 314.04 458.229 315.048 457.509 316.344C456.825 317.604 456.483 319.098 456.483 320.826V321.906C456.483 323.634 456.879 325.164 457.671 326.496C458.463 327.828 459.579 328.854 461.019 329.574C462.459 330.294 464.115 330.654 465.987 330.654C467.607 330.654 469.065 330.402 470.361 329.898C471.657 329.394 472.809 328.602 473.817 327.522L477.435 331.68C476.139 333.192 474.501 334.362 472.521 335.19C470.577 335.982 468.345 336.378 465.825 336.378Z" fill="#2EC4B6"/>
<path d="M484.783 336V307.164H491.209V314.94L490.075 312.564C491.083 310.728 492.541 309.324 494.449 308.352C496.393 307.344 498.625 306.84 501.145 306.84C503.449 306.84 505.501 307.29 507.301 308.19C509.137 309.09 510.577 310.476 511.621 312.348C512.665 314.184 513.187 316.56 513.187 319.476V336H506.437V320.34C506.437 317.784 505.825 315.876 504.601 314.616C503.413 313.356 501.739 312.726 499.579 312.726C497.995 312.726 496.591 313.05 495.367 313.698C494.143 314.346 493.189 315.318 492.505 316.614C491.857 317.874 491.533 319.476 491.533 321.42V336H484.783Z" fill="#2EC4B6"/>
<path d="M532.927 336.378C530.155 336.378 527.653 335.766 525.421 334.542C523.225 333.282 521.497 331.554 520.237 329.358C518.977 327.162 518.347 324.57 518.347 321.582C518.347 318.594 518.977 316.002 520.237 313.806C521.497 311.61 523.225 309.9 525.421 308.676C527.653 307.452 530.155 306.84 532.927 306.84C535.339 306.84 537.499 307.38 539.407 308.46C541.315 309.504 542.827 311.106 543.943 313.266C545.059 315.426 545.617 318.198 545.617 321.582C545.617 324.93 545.077 327.702 543.997 329.898C542.917 332.058 541.423 333.678 539.515 334.758C537.607 335.838 535.411 336.378 532.927 336.378ZM533.737 330.6C535.357 330.6 536.797 330.24 538.057 329.52C539.353 328.8 540.379 327.756 541.135 326.388C541.927 325.02 542.323 323.418 542.323 321.582C542.323 319.71 541.927 318.108 541.135 316.776C540.379 315.408 539.353 314.364 538.057 313.644C536.797 312.924 535.357 312.564 533.737 312.564C532.117 312.564 530.659 312.924 529.363 313.644C528.103 314.364 527.077 315.408 526.285 316.776C525.529 318.108 525.151 319.71 525.151 321.582C525.151 323.418 525.529 325.02 526.285 326.388C527.077 327.756 528.103 328.8 529.363 329.52C530.659 330.24 532.117 330.6 533.737 330.6ZM542.485 336V329.196L542.755 321.528L542.215 313.86V295.932H548.911V336H542.485Z" fill="#2EC4B6"/>
<path d="M570.269 336.378C567.065 336.378 564.257 335.748 561.845 334.488C559.469 333.192 557.615 331.428 556.283 329.196C554.987 326.964 554.339 324.426 554.339 321.582C554.339 318.702 554.969 316.164 556.229 313.968C557.525 311.736 559.289 309.99 561.521 308.73C563.789 307.47 566.363 306.84 569.243 306.84C572.051 306.84 574.553 307.452 576.749 308.676C578.945 309.9 580.673 311.628 581.933 313.86C583.193 316.092 583.823 318.72 583.823 321.744C583.823 322.032 583.805 322.356 583.769 322.716C583.769 323.076 583.751 323.418 583.715 323.742H559.685V319.26H580.151L577.505 320.664C577.541 319.008 577.199 317.55 576.479 316.29C575.759 315.03 574.769 314.04 573.509 313.32C572.285 312.6 570.863 312.24 569.243 312.24C567.587 312.24 566.129 312.6 564.869 313.32C563.645 314.04 562.673 315.048 561.953 316.344C561.269 317.604 560.927 319.098 560.927 320.826V321.906C560.927 323.634 561.323 325.164 562.115 326.496C562.907 327.828 564.023 328.854 565.463 329.574C566.903 330.294 568.559 330.654 570.431 330.654C572.051 330.654 573.509 330.402 574.805 329.898C576.101 329.394 577.253 328.602 578.261 327.522L581.879 331.68C580.583 333.192 578.945 334.362 576.965 335.19C575.021 335.982 572.789 336.378 570.269 336.378Z" fill="#2EC4B6"/>
<path d="M589.227 336V307.164H595.653V314.94L594.519 312.564C595.527 310.728 596.985 309.324 598.893 308.352C600.837 307.344 603.069 306.84 605.589 306.84C607.893 306.84 609.945 307.29 611.745 308.19C613.581 309.09 615.021 310.476 616.065 312.348C617.109 314.184 617.631 316.56 617.631 319.476V336H610.881V320.34C610.881 317.784 610.269 315.876 609.045 314.616C607.857 313.356 606.183 312.726 604.023 312.726C602.439 312.726 601.035 313.05 599.811 313.698C598.587 314.346 597.633 315.318 596.949 316.614C596.301 317.874 595.977 319.476 595.977 321.42V336H589.227Z" fill="#2EC4B6"/>
<path d="M635.968 336.378C632.8 336.378 630.352 335.568 628.624 333.948C626.896 332.292 626.032 329.862 626.032 326.658V300.792H632.782V326.496C632.782 327.864 633.124 328.926 633.808 329.682C634.528 330.438 635.518 330.816 636.778 330.816C638.29 330.816 639.55 330.42 640.558 329.628L642.448 334.434C641.656 335.082 640.684 335.568 639.532 335.892C638.38 336.216 637.192 336.378 635.968 336.378ZM621.28 312.564V307.164H640.504V312.564H621.28Z" fill="#2EC4B6"/>
<path d="M673.832 346.854C671.168 346.854 668.558 346.494 666.002 345.774C663.482 345.09 661.412 344.082 659.792 342.75L662.816 337.674C664.076 338.718 665.66 339.546 667.568 340.158C669.512 340.806 671.474 341.13 673.454 341.13C676.622 341.13 678.944 340.392 680.42 338.916C681.896 337.476 682.634 335.298 682.634 332.382V327.252L683.174 320.718L682.958 314.184V307.164H689.384V331.626C689.384 336.846 688.052 340.68 685.388 343.128C682.724 345.612 678.872 346.854 673.832 346.854ZM672.968 334.704C670.232 334.704 667.748 334.128 665.516 332.976C663.32 331.788 661.574 330.15 660.278 328.062C659.018 325.974 658.388 323.526 658.388 320.718C658.388 317.946 659.018 315.516 660.278 313.428C661.574 311.34 663.32 309.72 665.516 308.568C667.748 307.416 670.232 306.84 672.968 306.84C675.416 306.84 677.612 307.326 679.556 308.298C681.5 309.27 683.048 310.782 684.2 312.834C685.388 314.886 685.982 317.514 685.982 320.718C685.982 323.922 685.388 326.568 684.2 328.656C683.048 330.708 681.5 332.238 679.556 333.246C677.612 334.218 675.416 334.704 672.968 334.704ZM673.994 328.98C675.686 328.98 677.198 328.638 678.53 327.954C679.862 327.234 680.888 326.262 681.608 325.038C682.364 323.778 682.742 322.338 682.742 320.718C682.742 319.098 682.364 317.676 681.608 316.452C680.888 315.192 679.862 314.238 678.53 313.59C677.198 312.906 675.686 312.564 673.994 312.564C672.302 312.564 670.772 312.906 669.404 313.59C668.072 314.238 667.028 315.192 666.272 316.452C665.552 317.676 665.192 319.098 665.192 320.718C665.192 322.338 665.552 323.778 666.272 325.038C667.028 326.262 668.072 327.234 669.404 327.954C670.772 328.638 672.302 328.98 673.994 328.98Z" fill="#2EC4B6"/>
<path d="M714.944 336V330.168L714.566 328.926V318.72C714.566 316.74 713.972 315.21 712.784 314.13C711.596 313.014 709.796 312.456 707.384 312.456C705.764 312.456 704.162 312.708 702.578 313.212C701.03 313.716 699.716 314.418 698.636 315.318L695.99 310.404C697.538 309.216 699.374 308.334 701.498 307.758C703.658 307.146 705.89 306.84 708.194 306.84C712.37 306.84 715.592 307.848 717.86 309.864C720.164 311.844 721.316 314.922 721.316 319.098V336H714.944ZM705.872 336.378C703.712 336.378 701.822 336.018 700.202 335.298C698.582 334.542 697.322 333.516 696.422 332.22C695.558 330.888 695.126 329.394 695.126 327.738C695.126 326.118 695.504 324.66 696.26 323.364C697.052 322.068 698.33 321.042 700.094 320.286C701.858 319.53 704.198 319.152 707.114 319.152H715.484V323.634H707.6C705.296 323.634 703.748 324.012 702.956 324.768C702.164 325.488 701.768 326.388 701.768 327.468C701.768 328.692 702.254 329.664 703.226 330.384C704.198 331.104 705.548 331.464 707.276 331.464C708.932 331.464 710.408 331.086 711.704 330.33C713.036 329.574 713.99 328.458 714.566 326.982L715.7 331.032C715.052 332.724 713.882 334.038 712.19 334.974C710.534 335.91 708.428 336.378 705.872 336.378Z" fill="#2EC4B6"/>
<path d="M728.899 336V307.164H735.325V314.832L734.191 312.564C735.163 310.692 736.567 309.27 738.403 308.298C740.275 307.326 742.399 306.84 744.775 306.84C747.475 306.84 749.815 307.506 751.795 308.838C753.811 310.17 755.143 312.186 755.791 314.886L753.145 313.968C754.081 311.808 755.629 310.08 757.789 308.784C759.949 307.488 762.451 306.84 765.295 306.84C767.599 306.84 769.633 307.29 771.397 308.19C773.197 309.09 774.601 310.476 775.609 312.348C776.617 314.184 777.121 316.56 777.121 319.476V336H770.371V320.34C770.371 317.784 769.813 315.876 768.697 314.616C767.581 313.356 765.979 312.726 763.891 312.726C762.415 312.726 761.101 313.05 759.949 313.698C758.833 314.346 757.951 315.3 757.303 316.56C756.691 317.82 756.385 319.422 756.385 321.366V336H749.635V320.34C749.635 317.784 749.077 315.876 747.961 314.616C746.845 313.356 745.243 312.726 743.155 312.726C741.679 312.726 740.365 313.05 739.213 313.698C738.097 314.346 737.215 315.3 736.567 316.56C735.955 317.82 735.649 319.422 735.649 321.366V336H728.899Z" fill="#2EC4B6"/>
<path d="M798.273 336.378C795.069 336.378 792.261 335.748 789.849 334.488C787.473 333.192 785.619 331.428 784.287 329.196C782.991 326.964 782.343 324.426 782.343 321.582C782.343 318.702 782.973 316.164 784.233 313.968C785.529 311.736 787.293 309.99 789.525 308.73C791.793 307.47 794.367 306.84 797.247 306.84C800.055 306.84 802.557 307.452 804.753 308.676C806.949 309.9 808.677 311.628 809.937 313.86C811.197 316.092 811.827 318.72 811.827 321.744C811.827 322.032 811.809 322.356 811.773 322.716C811.773 323.076 811.755 323.418 811.719 323.742H787.689V319.26H808.155L805.509 320.664C805.545 319.008 805.203 317.55 804.483 316.29C803.763 315.03 802.773 314.04 801.513 313.32C800.289 312.6 798.867 312.24 797.247 312.24C795.591 312.24 794.133 312.6 792.873 313.32C791.649 314.04 790.677 315.048 789.957 316.344C789.273 317.604 788.931 319.098 788.931 320.826V321.906C788.931 323.634 789.327 325.164 790.119 326.496C790.911 327.828 792.027 328.854 793.467 329.574C794.907 330.294 796.563 330.654 798.435 330.654C800.055 330.654 801.513 330.402 802.809 329.898C804.105 329.394 805.257 328.602 806.265 327.522L809.883 331.68C808.587 333.192 806.949 334.362 804.969 335.19C803.025 335.982 800.793 336.378 798.273 336.378Z" fill="#2EC4B6"/>
<path d="M839.985 336.378C837.573 336.378 835.251 336.072 833.019 335.46C830.823 334.812 829.077 334.038 827.781 333.138L830.373 328.008C831.669 328.836 833.217 329.52 835.017 330.06C836.817 330.6 838.617 330.87 840.417 330.87C842.541 330.87 844.071 330.582 845.007 330.006C845.979 329.43 846.465 328.656 846.465 327.684C846.465 326.892 846.141 326.298 845.493 325.902C844.845 325.47 843.999 325.146 842.955 324.93C841.911 324.714 840.741 324.516 839.445 324.336C838.185 324.156 836.907 323.922 835.611 323.634C834.351 323.31 833.199 322.86 832.155 322.284C831.111 321.672 830.265 320.862 829.617 319.854C828.969 318.846 828.645 317.514 828.645 315.858C828.645 314.022 829.167 312.438 830.211 311.106C831.255 309.738 832.713 308.694 834.585 307.974C836.493 307.218 838.743 306.84 841.335 306.84C843.279 306.84 845.241 307.056 847.221 307.488C849.201 307.92 850.839 308.532 852.135 309.324L849.543 314.454C848.175 313.626 846.789 313.068 845.385 312.78C844.017 312.456 842.649 312.294 841.281 312.294C839.229 312.294 837.699 312.6 836.691 313.212C835.719 313.824 835.233 314.598 835.233 315.534C835.233 316.398 835.557 317.046 836.205 317.478C836.853 317.91 837.699 318.252 838.743 318.504C839.787 318.756 840.939 318.972 842.199 319.152C843.495 319.296 844.773 319.53 846.033 319.854C847.293 320.178 848.445 320.628 849.489 321.204C850.569 321.744 851.433 322.518 852.081 323.526C852.729 324.534 853.053 325.848 853.053 327.468C853.053 329.268 852.513 330.834 851.433 332.166C850.389 333.498 848.895 334.542 846.951 335.298C845.007 336.018 842.685 336.378 839.985 336.378Z" fill="#2EC4B6"/>
<path d="M868.64 336.378C865.472 336.378 863.024 335.568 861.296 333.948C859.568 332.292 858.704 329.862 858.704 326.658V300.792H865.454V326.496C865.454 327.864 865.796 328.926 866.48 329.682C867.2 330.438 868.19 330.816 869.45 330.816C870.962 330.816 872.222 330.42 873.23 329.628L875.12 334.434C874.328 335.082 873.356 335.568 872.204 335.892C871.052 336.216 869.864 336.378 868.64 336.378ZM853.952 312.564V307.164H873.176V312.564H853.952Z" fill="#2EC4B6"/>
<path d="M891.797 336.378C889.349 336.378 887.189 335.928 885.317 335.028C883.445 334.092 881.987 332.688 880.943 330.816C879.899 328.908 879.377 326.514 879.377 323.634V307.164H886.127V322.716C886.127 325.308 886.703 327.252 887.855 328.548C889.043 329.808 890.717 330.438 892.877 330.438C894.461 330.438 895.829 330.114 896.981 329.466C898.169 328.818 899.087 327.846 899.735 326.55C900.419 325.254 900.761 323.652 900.761 321.744V307.164H907.511V336H901.085V328.224L902.219 330.6C901.247 332.472 899.825 333.912 897.953 334.92C896.081 335.892 894.029 336.378 891.797 336.378Z" fill="#2EC4B6"/>
<path d="M927.473 336.378C924.701 336.378 922.199 335.766 919.967 334.542C917.771 333.282 916.043 331.554 914.783 329.358C913.523 327.162 912.893 324.57 912.893 321.582C912.893 318.594 913.523 316.002 914.783 313.806C916.043 311.61 917.771 309.9 919.967 308.676C922.199 307.452 924.701 306.84 927.473 306.84C929.885 306.84 932.045 307.38 933.953 308.46C935.861 309.504 937.373 311.106 938.489 313.266C939.605 315.426 940.163 318.198 940.163 321.582C940.163 324.93 939.623 327.702 938.543 329.898C937.463 332.058 935.969 333.678 934.061 334.758C932.153 335.838 929.957 336.378 927.473 336.378ZM928.283 330.6C929.903 330.6 931.343 330.24 932.603 329.52C933.899 328.8 934.925 327.756 935.681 326.388C936.473 325.02 936.869 323.418 936.869 321.582C936.869 319.71 936.473 318.108 935.681 316.776C934.925 315.408 933.899 314.364 932.603 313.644C931.343 312.924 929.903 312.564 928.283 312.564C926.663 312.564 925.205 312.924 923.909 313.644C922.649 314.364 921.623 315.408 920.831 316.776C920.075 318.108 919.697 319.71 919.697 321.582C919.697 323.418 920.075 325.02 920.831 326.388C921.623 327.756 922.649 328.8 923.909 329.52C925.205 330.24 926.663 330.6 928.283 330.6ZM937.031 336V329.196L937.301 321.528L936.761 313.86V295.932H943.457V336H937.031Z" fill="#2EC4B6"/>
<path d="M951.261 336V307.164H958.011V336H951.261ZM954.663 302.412C953.403 302.412 952.359 302.016 951.531 301.224C950.739 300.432 950.343 299.478 950.343 298.362C950.343 297.21 950.739 296.256 951.531 295.5C952.359 294.708 953.403 294.312 954.663 294.312C955.923 294.312 956.949 294.69 957.741 295.446C958.569 296.166 958.983 297.084 958.983 298.2C958.983 299.388 958.587 300.396 957.795 301.224C957.003 302.016 955.959 302.412 954.663 302.412Z" fill="#2EC4B6"/>
<path d="M978.75 336.378C975.798 336.378 973.17 335.748 970.866 334.488C968.562 333.192 966.744 331.428 965.412 329.196C964.08 326.964 963.414 324.426 963.414 321.582C963.414 318.702 964.08 316.164 965.412 313.968C966.744 311.736 968.562 309.99 970.866 308.73C973.17 307.47 975.798 306.84 978.75 306.84C981.738 306.84 984.384 307.47 986.688 308.73C989.028 309.99 990.846 311.718 992.142 313.914C993.474 316.11 994.14 318.666 994.14 321.582C994.14 324.426 993.474 326.964 992.142 329.196C990.846 331.428 989.028 333.192 986.688 334.488C984.384 335.748 981.738 336.378 978.75 336.378ZM978.75 330.6C980.406 330.6 981.882 330.24 983.178 329.52C984.474 328.8 985.482 327.756 986.202 326.388C986.958 325.02 987.336 323.418 987.336 321.582C987.336 319.71 986.958 318.108 986.202 316.776C985.482 315.408 984.474 314.364 983.178 313.644C981.882 312.924 980.424 312.564 978.804 312.564C977.148 312.564 975.672 312.924 974.376 313.644C973.116 314.364 972.108 315.408 971.352 316.776C970.596 318.108 970.218 319.71 970.218 321.582C970.218 323.418 970.596 325.02 971.352 326.388C972.108 327.756 973.116 328.8 974.376 329.52C975.672 330.24 977.13 330.6 978.75 330.6Z" fill="#2EC4B6"/>
<path d="M209.342 453.54C206.462 453.54 203.78 453.072 201.296 452.136C198.848 451.164 196.706 449.814 194.87 448.086C193.07 446.322 191.666 444.252 190.658 441.876C189.65 439.5 189.146 436.908 189.146 434.1C189.146 431.292 189.65 428.7 190.658 426.324C191.666 423.948 193.088 421.896 194.924 420.168C196.76 418.404 198.902 417.054 201.35 416.118C203.798 415.146 206.48 414.66 209.396 414.66C212.492 414.66 215.318 415.2 217.874 416.28C220.43 417.324 222.59 418.89 224.354 420.978L219.818 425.244C218.45 423.768 216.92 422.67 215.228 421.95C213.536 421.194 211.7 420.816 209.72 420.816C207.74 420.816 205.922 421.14 204.266 421.788C202.646 422.436 201.224 423.354 200 424.542C198.812 425.73 197.876 427.134 197.192 428.754C196.544 430.374 196.22 432.156 196.22 434.1C196.22 436.044 196.544 437.826 197.192 439.446C197.876 441.066 198.812 442.47 200 443.658C201.224 444.846 202.646 445.764 204.266 446.412C205.922 447.06 207.74 447.384 209.72 447.384C211.7 447.384 213.536 447.024 215.228 446.304C216.92 445.548 218.45 444.414 219.818 442.902L224.354 447.222C222.59 449.274 220.43 450.84 217.874 451.92C215.318 453 212.474 453.54 209.342 453.54Z" fill="#F5EFE8"/>
<path d="M228.878 453V424.164H235.304V432.102L234.548 429.78C235.412 427.836 236.762 426.36 238.598 425.352C240.47 424.344 242.792 423.84 245.564 423.84V430.266C245.276 430.194 245.006 430.158 244.754 430.158C244.502 430.122 244.25 430.104 243.998 430.104C241.442 430.104 239.408 430.86 237.896 432.372C236.384 433.848 235.628 436.062 235.628 439.014V453H228.878Z" fill="#F5EFE8"/>
<path d="M265.919 453V447.168L265.542 445.926V435.72C265.542 433.74 264.947 432.21 263.759 431.13C262.571 430.014 260.771 429.456 258.359 429.456C256.739 429.456 255.137 429.708 253.553 430.212C252.005 430.716 250.691 431.418 249.611 432.318L246.965 427.404C248.514 426.216 250.349 425.334 252.473 424.758C254.633 424.146 256.865 423.84 259.169 423.84C263.345 423.84 266.568 424.848 268.836 426.864C271.14 428.844 272.292 431.922 272.292 436.098V453H265.919ZM256.848 453.378C254.688 453.378 252.797 453.018 251.177 452.298C249.557 451.542 248.297 450.516 247.397 449.22C246.533 447.888 246.102 446.394 246.102 444.738C246.102 443.118 246.479 441.66 247.235 440.364C248.027 439.068 249.305 438.042 251.069 437.286C252.833 436.53 255.174 436.152 258.09 436.152H266.46V440.634H258.576C256.272 440.634 254.723 441.012 253.931 441.768C253.139 442.488 252.743 443.388 252.743 444.468C252.743 445.692 253.229 446.664 254.201 447.384C255.173 448.104 256.523 448.464 258.251 448.464C259.907 448.464 261.384 448.086 262.68 447.33C264.012 446.574 264.966 445.458 265.542 443.982L266.676 448.032C266.028 449.724 264.857 451.038 263.165 451.974C261.509 452.91 259.404 453.378 256.848 453.378Z" fill="#F5EFE8"/>
<path d="M280.792 453V422.544C280.792 419.52 281.674 417.108 283.438 415.308C285.238 413.472 287.794 412.554 291.106 412.554C292.294 412.554 293.41 412.68 294.454 412.932C295.534 413.184 296.434 413.58 297.154 414.12L295.318 419.196C294.814 418.8 294.238 418.512 293.59 418.332C292.942 418.116 292.276 418.008 291.592 418.008C290.188 418.008 289.126 418.404 288.406 419.196C287.686 419.952 287.326 421.104 287.326 422.652V425.892L287.542 428.916V453H280.792ZM276.04 429.78V424.38H295.264V429.78H276.04Z" fill="#F5EFE8"/>
<path d="M309.582 453.378C306.414 453.378 303.966 452.568 302.238 450.948C300.51 449.292 299.646 446.862 299.646 443.658V417.792H306.396V443.496C306.396 444.864 306.738 445.926 307.422 446.682C308.142 447.438 309.132 447.816 310.392 447.816C311.904 447.816 313.164 447.42 314.172 446.628L316.062 451.434C315.27 452.082 314.298 452.568 313.146 452.892C311.994 453.216 310.806 453.378 309.582 453.378ZM294.894 429.564V424.164H314.118V429.564H294.894Z" fill="#F5EFE8"/>
<path d="M320.535 453V424.164H327.285V453H320.535ZM323.937 419.412C322.677 419.412 321.633 419.016 320.805 418.224C320.013 417.432 319.617 416.478 319.617 415.362C319.617 414.21 320.013 413.256 320.805 412.5C321.633 411.708 322.677 411.312 323.937 411.312C325.197 411.312 326.223 411.69 327.015 412.446C327.843 413.166 328.257 414.084 328.257 415.2C328.257 416.388 327.861 417.396 327.069 418.224C326.277 419.016 325.233 419.412 323.937 419.412Z" fill="#F5EFE8"/>
<path d="M335.064 453V424.164H341.49V431.94L340.356 429.564C341.364 427.728 342.822 426.324 344.73 425.352C346.674 424.344 348.906 423.84 351.426 423.84C353.73 423.84 355.782 424.29 357.582 425.19C359.418 426.09 360.858 427.476 361.902 429.348C362.946 431.184 363.468 433.56 363.468 436.476V453H356.718V437.34C356.718 434.784 356.106 432.876 354.882 431.616C353.694 430.356 352.02 429.726 349.86 429.726C348.276 429.726 346.872 430.05 345.648 430.698C344.424 431.346 343.47 432.318 342.786 433.614C342.138 434.874 341.814 436.476 341.814 438.42V453H335.064Z" fill="#F5EFE8"/>
<path d="M384.072 463.854C381.408 463.854 378.797 463.494 376.241 462.774C373.721 462.09 371.651 461.082 370.031 459.75L373.056 454.674C374.316 455.718 375.899 456.546 377.807 457.158C379.751 457.806 381.714 458.13 383.694 458.13C386.862 458.13 389.184 457.392 390.66 455.916C392.136 454.476 392.874 452.298 392.874 449.382V444.252L393.414 437.718L393.198 431.184V424.164H399.624V448.626C399.624 453.846 398.292 457.68 395.628 460.128C392.964 462.612 389.112 463.854 384.072 463.854ZM383.207 451.704C380.471 451.704 377.987 451.128 375.755 449.976C373.559 448.788 371.813 447.15 370.517 445.062C369.257 442.974 368.628 440.526 368.628 437.718C368.628 434.946 369.257 432.516 370.517 430.428C371.813 428.34 373.559 426.72 375.755 425.568C377.987 424.416 380.471 423.84 383.207 423.84C385.655 423.84 387.852 424.326 389.796 425.298C391.74 426.27 393.288 427.782 394.44 429.834C395.628 431.886 396.221 434.514 396.221 437.718C396.221 440.922 395.628 443.568 394.44 445.656C393.288 447.708 391.74 449.238 389.796 450.246C387.852 451.218 385.655 451.704 383.207 451.704ZM384.233 445.98C385.925 445.98 387.438 445.638 388.77 444.954C390.102 444.234 391.128 443.262 391.848 442.038C392.604 440.778 392.982 439.338 392.982 437.718C392.982 436.098 392.604 434.676 391.848 433.452C391.128 432.192 390.102 431.238 388.77 430.59C387.438 429.906 385.925 429.564 384.233 429.564C382.541 429.564 381.011 429.906 379.643 430.59C378.311 431.238 377.268 432.192 376.512 433.452C375.792 434.676 375.431 436.098 375.431 437.718C375.431 439.338 375.792 440.778 376.512 442.038C377.268 443.262 378.311 444.234 379.643 444.954C381.011 445.638 382.541 445.98 384.233 445.98Z" fill="#F5EFE8"/>
<path d="M434.329 463.854C431.665 463.854 429.055 463.494 426.499 462.774C423.979 462.09 421.909 461.082 420.289 459.75L423.313 454.674C424.573 455.718 426.157 456.546 428.065 457.158C430.009 457.806 431.971 458.13 433.951 458.13C437.119 458.13 439.441 457.392 440.917 455.916C442.393 454.476 443.131 452.298 443.131 449.382V444.252L443.671 437.718L443.455 431.184V424.164H449.881V448.626C449.881 453.846 448.549 457.68 445.885 460.128C443.221 462.612 439.369 463.854 434.329 463.854ZM433.465 451.704C430.729 451.704 428.245 451.128 426.013 449.976C423.817 448.788 422.071 447.15 420.775 445.062C419.515 442.974 418.885 440.526 418.885 437.718C418.885 434.946 419.515 432.516 420.775 430.428C422.071 428.34 423.817 426.72 426.013 425.568C428.245 424.416 430.729 423.84 433.465 423.84C435.913 423.84 438.109 424.326 440.053 425.298C441.997 426.27 443.545 427.782 444.697 429.834C445.885 431.886 446.479 434.514 446.479 437.718C446.479 440.922 445.885 443.568 444.697 445.656C443.545 447.708 441.997 449.238 440.053 450.246C438.109 451.218 435.913 451.704 433.465 451.704ZM434.491 445.98C436.183 445.98 437.695 445.638 439.027 444.954C440.359 444.234 441.385 443.262 442.105 442.038C442.861 440.778 443.239 439.338 443.239 437.718C443.239 436.098 442.861 434.676 442.105 433.452C441.385 432.192 440.359 431.238 439.027 430.59C437.695 429.906 436.183 429.564 434.491 429.564C432.799 429.564 431.269 429.906 429.901 430.59C428.569 431.238 427.525 432.192 426.769 433.452C426.049 434.676 425.689 436.098 425.689 437.718C425.689 439.338 426.049 440.778 426.769 442.038C427.525 443.262 428.569 444.234 429.901 444.954C431.269 445.638 432.799 445.98 434.491 445.98Z" fill="#F5EFE8"/>
<path d="M475.442 453V447.168L475.064 445.926V435.72C475.064 433.74 474.47 432.21 473.282 431.13C472.094 430.014 470.294 429.456 467.882 429.456C466.262 429.456 464.66 429.708 463.076 430.212C461.528 430.716 460.214 431.418 459.134 432.318L456.488 427.404C458.036 426.216 459.872 425.334 461.996 424.758C464.156 424.146 466.388 423.84 468.692 423.84C472.868 423.84 476.09 424.848 478.358 426.864C480.662 428.844 481.814 431.922 481.814 436.098V453H475.442ZM466.37 453.378C464.21 453.378 462.32 453.018 460.7 452.298C459.08 451.542 457.82 450.516 456.92 449.22C456.056 447.888 455.624 446.394 455.624 444.738C455.624 443.118 456.002 441.66 456.758 440.364C457.55 439.068 458.828 438.042 460.592 437.286C462.356 436.53 464.696 436.152 467.612 436.152H475.982V440.634H468.098C465.794 440.634 464.246 441.012 463.454 441.768C462.662 442.488 462.266 443.388 462.266 444.468C462.266 445.692 462.752 446.664 463.724 447.384C464.696 448.104 466.046 448.464 467.774 448.464C469.43 448.464 470.906 448.086 472.202 447.33C473.534 446.574 474.488 445.458 475.064 443.982L476.198 448.032C475.55 449.724 474.38 451.038 472.688 451.974C471.032 452.91 468.926 453.378 466.37 453.378Z" fill="#F5EFE8"/>
<path d="M489.396 453V424.164H495.822V431.832L494.688 429.564C495.66 427.692 497.064 426.27 498.9 425.298C500.772 424.326 502.896 423.84 505.272 423.84C507.972 423.84 510.312 424.506 512.292 425.838C514.308 427.17 515.64 429.186 516.288 431.886L513.642 430.968C514.578 428.808 516.126 427.08 518.286 425.784C520.446 424.488 522.948 423.84 525.792 423.84C528.096 423.84 530.13 424.29 531.894 425.19C533.694 426.09 535.098 427.476 536.106 429.348C537.114 431.184 537.618 433.56 537.618 436.476V453H530.868V437.34C530.868 434.784 530.31 432.876 529.194 431.616C528.078 430.356 526.476 429.726 524.388 429.726C522.912 429.726 521.598 430.05 520.446 430.698C519.33 431.346 518.448 432.3 517.8 433.56C517.188 434.82 516.882 436.422 516.882 438.366V453H510.132V437.34C510.132 434.784 509.574 432.876 508.458 431.616C507.342 430.356 505.74 429.726 503.652 429.726C502.176 429.726 500.862 430.05 499.71 430.698C498.594 431.346 497.712 432.3 497.064 433.56C496.452 434.82 496.146 436.422 496.146 438.366V453H489.396Z" fill="#F5EFE8"/>
<path d="M558.771 453.378C555.567 453.378 552.759 452.748 550.347 451.488C547.971 450.192 546.117 448.428 544.785 446.196C543.489 443.964 542.841 441.426 542.841 438.582C542.841 435.702 543.471 433.164 544.731 430.968C546.027 428.736 547.791 426.99 550.023 425.73C552.291 424.47 554.865 423.84 557.745 423.84C560.553 423.84 563.055 424.452 565.251 425.676C567.447 426.9 569.175 428.628 570.435 430.86C571.695 433.092 572.325 435.72 572.325 438.744C572.325 439.032 572.307 439.356 572.271 439.716C572.271 440.076 572.253 440.418 572.217 440.742H548.187V436.26H568.653L566.007 437.664C566.043 436.008 565.701 434.55 564.981 433.29C564.261 432.03 563.271 431.04 562.011 430.32C560.787 429.6 559.365 429.24 557.745 429.24C556.089 429.24 554.631 429.6 553.371 430.32C552.147 431.04 551.175 432.048 550.455 433.344C549.771 434.604 549.429 436.098 549.429 437.826V438.906C549.429 440.634 549.825 442.164 550.617 443.496C551.409 444.828 552.525 445.854 553.965 446.574C555.405 447.294 557.061 447.654 558.933 447.654C560.553 447.654 562.011 447.402 563.307 446.898C564.603 446.394 565.755 445.602 566.763 444.522L570.381 448.68C569.085 450.192 567.447 451.362 565.467 452.19C563.523 452.982 561.291 453.378 558.771 453.378Z" fill="#F5EFE8"/>
<path d="M586.639 453.378C584.227 453.378 581.905 453.072 579.673 452.46C577.477 451.812 575.731 451.038 574.435 450.138L577.027 445.008C578.323 445.836 579.871 446.52 581.671 447.06C583.471 447.6 585.271 447.87 587.071 447.87C589.195 447.87 590.725 447.582 591.661 447.006C592.633 446.43 593.119 445.656 593.119 444.684C593.119 443.892 592.795 443.298 592.147 442.902C591.499 442.47 590.653 442.146 589.609 441.93C588.565 441.714 587.395 441.516 586.099 441.336C584.839 441.156 583.561 440.922 582.265 440.634C581.005 440.31 579.853 439.86 578.809 439.284C577.765 438.672 576.919 437.862 576.271 436.854C575.623 435.846 575.299 434.514 575.299 432.858C575.299 431.022 575.821 429.438 576.865 428.106C577.909 426.738 579.367 425.694 581.239 424.974C583.147 424.218 585.397 423.84 587.989 423.84C589.933 423.84 591.895 424.056 593.875 424.488C595.855 424.92 597.493 425.532 598.789 426.324L596.197 431.454C594.829 430.626 593.443 430.068 592.039 429.78C590.671 429.456 589.303 429.294 587.935 429.294C585.883 429.294 584.353 429.6 583.345 430.212C582.373 430.824 581.887 431.598 581.887 432.534C581.887 433.398 582.211 434.046 582.859 434.478C583.507 434.91 584.353 435.252 585.397 435.504C586.441 435.756 587.593 435.972 588.853 436.152C590.149 436.296 591.427 436.53 592.687 436.854C593.947 437.178 595.099 437.628 596.143 438.204C597.223 438.744 598.087 439.518 598.735 440.526C599.383 441.534 599.707 442.848 599.707 444.468C599.707 446.268 599.167 447.834 598.087 449.166C597.043 450.498 595.549 451.542 593.605 452.298C591.661 453.018 589.339 453.378 586.639 453.378Z" fill="#F5EFE8"/>
<path d="M629.137 453.378C625.969 453.378 623.521 452.568 621.793 450.948C620.065 449.292 619.201 446.862 619.201 443.658V417.792H625.951V443.496C625.951 444.864 626.293 445.926 626.977 446.682C627.697 447.438 628.687 447.816 629.947 447.816C631.459 447.816 632.719 447.42 633.727 446.628L635.617 451.434C634.825 452.082 633.853 452.568 632.701 452.892C631.549 453.216 630.361 453.378 629.137 453.378ZM614.449 429.564V424.164H633.673V429.564H614.449Z" fill="#F5EFE8"/>
<path d="M640.09 453V412.932H646.84V431.94L645.382 429.564C646.39 427.728 647.848 426.324 649.756 425.352C651.7 424.344 653.932 423.84 656.452 423.84C658.756 423.84 660.808 424.29 662.608 425.19C664.444 426.09 665.884 427.476 666.928 429.348C667.972 431.184 668.494 433.56 668.494 436.476V453H661.744V437.34C661.744 434.784 661.132 432.876 659.908 431.616C658.72 430.356 657.046 429.726 654.886 429.726C653.302 429.726 651.898 430.05 650.674 430.698C649.45 431.346 648.496 432.318 647.812 433.614C647.164 434.874 646.84 436.476 646.84 438.42V453H640.09Z" fill="#F5EFE8"/>
<path d="M693.743 453V447.168L693.365 445.926V435.72C693.365 433.74 692.771 432.21 691.583 431.13C690.395 430.014 688.595 429.456 686.183 429.456C684.563 429.456 682.961 429.708 681.377 430.212C679.829 430.716 678.515 431.418 677.435 432.318L674.789 427.404C676.337 426.216 678.173 425.334 680.297 424.758C682.457 424.146 684.689 423.84 686.993 423.84C691.169 423.84 694.391 424.848 696.659 426.864C698.963 428.844 700.115 431.922 700.115 436.098V453H693.743ZM684.671 453.378C682.511 453.378 680.621 453.018 679.001 452.298C677.381 451.542 676.121 450.516 675.221 449.22C674.357 447.888 673.925 446.394 673.925 444.738C673.925 443.118 674.303 441.66 675.059 440.364C675.851 439.068 677.129 438.042 678.893 437.286C680.657 436.53 682.997 436.152 685.913 436.152H694.283V440.634H686.399C684.095 440.634 682.547 441.012 681.755 441.768C680.963 442.488 680.567 443.388 680.567 444.468C680.567 445.692 681.053 446.664 682.025 447.384C682.997 448.104 684.347 448.464 686.075 448.464C687.731 448.464 689.207 448.086 690.503 447.33C691.835 446.574 692.789 445.458 693.365 443.982L694.499 448.032C693.851 449.724 692.681 451.038 690.989 451.974C689.333 452.91 687.227 453.378 684.671 453.378Z" fill="#F5EFE8"/>
<path d="M718.552 453.378C715.384 453.378 712.936 452.568 711.208 450.948C709.48 449.292 708.616 446.862 708.616 443.658V417.792H715.366V443.496C715.366 444.864 715.708 445.926 716.392 446.682C717.112 447.438 718.102 447.816 719.362 447.816C720.874 447.816 722.134 447.42 723.142 446.628L725.032 451.434C724.24 452.082 723.268 452.568 722.116 452.892C720.964 453.216 719.776 453.378 718.552 453.378ZM703.864 429.564V424.164H723.088V429.564H703.864Z" fill="#F5EFE8"/>
<path d="M743.348 453V412.932H750.098V453H743.348Z" fill="#F5EFE8"/>
<path d="M771.432 453.378C768.228 453.378 765.42 452.748 763.008 451.488C760.632 450.192 758.778 448.428 757.446 446.196C756.15 443.964 755.502 441.426 755.502 438.582C755.502 435.702 756.132 433.164 757.392 430.968C758.688 428.736 760.452 426.99 762.684 425.73C764.952 424.47 767.526 423.84 770.406 423.84C773.214 423.84 775.716 424.452 777.912 425.676C780.108 426.9 781.836 428.628 783.096 430.86C784.356 433.092 784.986 435.72 784.986 438.744C784.986 439.032 784.968 439.356 784.932 439.716C784.932 440.076 784.914 440.418 784.878 440.742H760.848V436.26H781.314L778.668 437.664C778.704 436.008 778.362 434.55 777.642 433.29C776.922 432.03 775.932 431.04 774.672 430.32C773.448 429.6 772.026 429.24 770.406 429.24C768.75 429.24 767.292 429.6 766.032 430.32C764.808 431.04 763.836 432.048 763.116 433.344C762.432 434.604 762.09 436.098 762.09 437.826V438.906C762.09 440.634 762.486 442.164 763.278 443.496C764.07 444.828 765.186 445.854 766.626 446.574C768.066 447.294 769.722 447.654 771.594 447.654C773.214 447.654 774.672 447.402 775.968 446.898C777.264 446.394 778.416 445.602 779.424 444.522L783.042 448.68C781.746 450.192 780.108 451.362 778.128 452.19C776.184 452.982 773.952 453.378 771.432 453.378Z" fill="#F5EFE8"/>
<path d="M801.243 453.378C798.075 453.378 795.627 452.568 793.899 450.948C792.171 449.292 791.307 446.862 791.307 443.658V417.792H798.057V443.496C798.057 444.864 798.399 445.926 799.083 446.682C799.803 447.438 800.793 447.816 802.053 447.816C803.565 447.816 804.825 447.42 805.833 446.628L807.723 451.434C806.931 452.082 805.959 452.568 804.807 452.892C803.655 453.216 802.467 453.378 801.243 453.378ZM786.555 429.564V424.164H805.779V429.564H786.555Z" fill="#F5EFE8"/>
<path d="M842.024 453.378C839.684 453.378 837.542 452.838 835.598 451.758C833.69 450.678 832.16 449.058 831.008 446.898C829.892 444.702 829.334 441.93 829.334 438.582C829.334 435.198 829.874 432.426 830.954 430.266C832.07 428.106 833.582 426.504 835.49 425.46C837.398 424.38 839.576 423.84 842.024 423.84C844.868 423.84 847.37 424.452 849.53 425.676C851.726 426.9 853.454 428.61 854.714 430.806C856.01 433.002 856.658 435.594 856.658 438.582C856.658 441.57 856.01 444.18 854.714 446.412C853.454 448.608 851.726 450.318 849.53 451.542C847.37 452.766 844.868 453.378 842.024 453.378ZM826.04 463.476V424.164H832.466V430.968L832.25 438.636L832.79 446.304V463.476H826.04ZM841.268 447.6C842.888 447.6 844.328 447.24 845.588 446.52C846.884 445.8 847.91 444.756 848.666 443.388C849.422 442.02 849.8 440.418 849.8 438.582C849.8 436.71 849.422 435.108 848.666 433.776C847.91 432.408 846.884 431.364 845.588 430.644C844.328 429.924 842.888 429.564 841.268 429.564C839.648 429.564 838.19 429.924 836.894 430.644C835.598 431.364 834.572 432.408 833.816 433.776C833.06 435.108 832.682 436.71 832.682 438.582C832.682 440.418 833.06 442.02 833.816 443.388C834.572 444.756 835.598 445.8 836.894 446.52C838.19 447.24 839.648 447.6 841.268 447.6Z" fill="#F5EFE8"/>
<path d="M861.979 453V412.932H868.729V453H861.979Z" fill="#F5EFE8"/>
<path d="M894.275 453V447.168L893.897 445.926V435.72C893.897 433.74 893.303 432.21 892.115 431.13C890.927 430.014 889.127 429.456 886.715 429.456C885.095 429.456 883.493 429.708 881.909 430.212C880.361 430.716 879.047 431.418 877.967 432.318L875.321 427.404C876.869 426.216 878.705 425.334 880.829 424.758C882.989 424.146 885.221 423.84 887.525 423.84C891.701 423.84 894.923 424.848 897.191 426.864C899.495 428.844 900.647 431.922 900.647 436.098V453H894.275ZM885.203 453.378C883.043 453.378 881.153 453.018 879.533 452.298C877.913 451.542 876.653 450.516 875.753 449.22C874.889 447.888 874.457 446.394 874.457 444.738C874.457 443.118 874.835 441.66 875.591 440.364C876.383 439.068 877.661 438.042 879.425 437.286C881.189 436.53 883.529 436.152 886.445 436.152H894.815V440.634H886.931C884.627 440.634 883.079 441.012 882.287 441.768C881.495 442.488 881.099 443.388 881.099 444.468C881.099 445.692 881.585 446.664 882.557 447.384C883.529 448.104 884.879 448.464 886.607 448.464C888.263 448.464 889.739 448.086 891.035 447.33C892.367 446.574 893.321 445.458 893.897 443.982L895.031 448.032C894.383 449.724 893.213 451.038 891.521 451.974C889.865 452.91 887.759 453.378 885.203 453.378Z" fill="#F5EFE8"/>
<path d="M909.867 463.854C908.463 463.854 907.059 463.62 905.655 463.152C904.251 462.684 903.081 462.036 902.145 461.208L904.845 456.24C905.529 456.852 906.303 457.338 907.167 457.698C908.031 458.058 908.913 458.238 909.813 458.238C911.037 458.238 912.027 457.932 912.783 457.32C913.539 456.708 914.241 455.682 914.889 454.242L916.563 450.462L917.103 449.652L928.011 424.164H934.491L920.991 455.322C920.091 457.482 919.083 459.192 917.967 460.452C916.887 461.712 915.663 462.594 914.295 463.098C912.963 463.602 911.487 463.854 909.867 463.854ZM915.807 454.026L902.793 424.164H909.813L920.397 449.058L915.807 454.026Z" fill="#F5EFE8"/>
<path d="M950.393 453.378C947.189 453.378 944.381 452.748 941.969 451.488C939.593 450.192 937.739 448.428 936.407 446.196C935.111 443.964 934.463 441.426 934.463 438.582C934.463 435.702 935.093 433.164 936.353 430.968C937.649 428.736 939.413 426.99 941.645 425.73C943.913 424.47 946.487 423.84 949.367 423.84C952.175 423.84 954.677 424.452 956.873 425.676C959.069 426.9 960.797 428.628 962.057 430.86C963.317 433.092 963.947 435.72 963.947 438.744C963.947 439.032 963.929 439.356 963.893 439.716C963.893 440.076 963.875 440.418 963.839 440.742H939.809V436.26H960.275L957.629 437.664C957.665 436.008 957.323 434.55 956.603 433.29C955.883 432.03 954.893 431.04 953.633 430.32C952.409 429.6 950.987 429.24 949.367 429.24C947.711 429.24 946.253 429.6 944.993 430.32C943.769 431.04 942.797 432.048 942.077 433.344C941.393 434.604 941.051 436.098 941.051 437.826V438.906C941.051 440.634 941.447 442.164 942.239 443.496C943.031 444.828 944.147 445.854 945.587 446.574C947.027 447.294 948.683 447.654 950.555 447.654C952.175 447.654 953.633 447.402 954.929 446.898C956.225 446.394 957.377 445.602 958.385 444.522L962.003 448.68C960.707 450.192 959.069 451.362 957.089 452.19C955.145 452.982 952.913 453.378 950.393 453.378Z" fill="#F5EFE8"/>
<path d="M969.351 453V424.164H975.777V432.102L975.021 429.78C975.885 427.836 977.235 426.36 979.071 425.352C980.943 424.344 983.265 423.84 986.037 423.84V430.266C985.749 430.194 985.479 430.158 985.227 430.158C984.975 430.122 984.723 430.104 984.471 430.104C981.915 430.104 979.881 430.86 978.369 432.372C976.857 433.848 976.101 436.062 976.101 439.014V453H969.351Z" fill="#F5EFE8"/>
<path d="M999.857 453.378C997.445 453.378 995.123 453.072 992.891 452.46C990.695 451.812 988.949 451.038 987.653 450.138L990.245 445.008C991.541 445.836 993.089 446.52 994.889 447.06C996.689 447.6 998.489 447.87 1000.29 447.87C1002.41 447.87 1003.94 447.582 1004.88 447.006C1005.85 446.43 1006.34 445.656 1006.34 444.684C1006.34 443.892 1006.01 443.298 1005.36 442.902C1004.72 442.47 1003.87 442.146 1002.83 441.93C1001.78 441.714 1000.61 441.516 999.317 441.336C998.057 441.156 996.779 440.922 995.483 440.634C994.223 440.31 993.071 439.86 992.027 439.284C990.983 438.672 990.137 437.862 989.489 436.854C988.841 435.846 988.517 434.514 988.517 432.858C988.517 431.022 989.039 429.438 990.083 428.106C991.127 426.738 992.585 425.694 994.457 424.974C996.365 424.218 998.615 423.84 1001.21 423.84C1003.15 423.84 1005.11 424.056 1007.09 424.488C1009.07 424.92 1010.71 425.532 1012.01 426.324L1009.41 431.454C1008.05 430.626 1006.66 430.068 1005.26 429.78C1003.89 429.456 1002.52 429.294 1001.15 429.294C999.101 429.294 997.571 429.6 996.563 430.212C995.591 430.824 995.105 431.598 995.105 432.534C995.105 433.398 995.429 434.046 996.077 434.478C996.725 434.91 997.571 435.252 998.615 435.504C999.659 435.756 1000.81 435.972 1002.07 436.152C1003.37 436.296 1004.64 436.53 1005.9 436.854C1007.16 437.178 1008.32 437.628 1009.36 438.204C1010.44 438.744 1011.3 439.518 1011.95 440.526C1012.6 441.534 1012.92 442.848 1012.92 444.468C1012.92 446.268 1012.38 447.834 1011.3 449.166C1010.26 450.498 1008.77 451.542 1006.82 452.298C1004.88 453.018 1002.56 453.378 999.857 453.378Z" fill="#F5EFE8"/>
<path d="M88.5742 516.378C85.3702 516.378 82.5622 515.748 80.1502 514.488C77.7742 513.192 75.9202 511.428 74.5882 509.196C73.2922 506.964 72.6442 504.426 72.6442 501.582C72.6442 498.702 73.2742 496.164 74.5342 493.968C75.8302 491.736 77.5942 489.99 79.8262 488.73C82.0942 487.47 84.6682 486.84 87.5482 486.84C90.3562 486.84 92.8582 487.452 95.0542 488.676C97.2502 489.9 98.9782 491.628 100.238 493.86C101.498 496.092 102.128 498.72 102.128 501.744C102.128 502.032 102.11 502.356 102.074 502.716C102.074 503.076 102.056 503.418 102.02 503.742H77.9902V499.26H98.4562L95.8102 500.664C95.8462 499.008 95.5042 497.55 94.7842 496.29C94.0642 495.03 93.0742 494.04 91.8142 493.32C90.5902 492.6 89.1682 492.24 87.5482 492.24C85.8922 492.24 84.4342 492.6 83.1742 493.32C81.9502 494.04 80.9782 495.048 80.2582 496.344C79.5742 497.604 79.2322 499.098 79.2322 500.826V501.906C79.2322 503.634 79.6282 505.164 80.4202 506.496C81.2122 507.828 82.3282 508.854 83.7682 509.574C85.2082 510.294 86.8642 510.654 88.7362 510.654C90.3562 510.654 91.8142 510.402 93.1102 509.898C94.4062 509.394 95.5582 508.602 96.5662 507.522L100.184 511.68C98.8882 513.192 97.2502 514.362 95.2702 515.19C93.3262 515.982 91.0942 516.378 88.5742 516.378Z" fill="#F5EFE8"/>
<path d="M102.799 516L115.489 499.476L115.381 503.094L103.285 487.164H110.791L119.269 498.504H116.407L124.939 487.164H132.229L120.025 503.094L120.079 499.476L132.715 516H125.101L116.191 503.958L118.999 504.336L110.251 516H102.799Z" fill="#F5EFE8"/>
<path d="M152.6 516.378C150.26 516.378 148.118 515.838 146.174 514.758C144.266 513.678 142.736 512.058 141.584 509.898C140.468 507.702 139.91 504.93 139.91 501.582C139.91 498.198 140.45 495.426 141.53 493.266C142.646 491.106 144.158 489.504 146.066 488.46C147.974 487.38 150.152 486.84 152.6 486.84C155.444 486.84 157.946 487.452 160.106 488.676C162.302 489.9 164.03 491.61 165.29 493.806C166.586 496.002 167.234 498.594 167.234 501.582C167.234 504.57 166.586 507.18 165.29 509.412C164.03 511.608 162.302 513.318 160.106 514.542C157.946 515.766 155.444 516.378 152.6 516.378ZM136.616 526.476V487.164H143.042V493.968L142.826 501.636L143.366 509.304V526.476H136.616ZM151.844 510.6C153.464 510.6 154.904 510.24 156.164 509.52C157.46 508.8 158.486 507.756 159.242 506.388C159.998 505.02 160.376 503.418 160.376 501.582C160.376 499.71 159.998 498.108 159.242 496.776C158.486 495.408 157.46 494.364 156.164 493.644C154.904 492.924 153.464 492.564 151.844 492.564C150.224 492.564 148.766 492.924 147.47 493.644C146.174 494.364 145.148 495.408 144.392 496.776C143.636 498.108 143.258 499.71 143.258 501.582C143.258 503.418 143.636 505.02 144.392 506.388C145.148 507.756 146.174 508.8 147.47 509.52C148.766 510.24 150.224 510.6 151.844 510.6Z" fill="#F5EFE8"/>
<path d="M186.11 516.378C182.906 516.378 180.098 515.748 177.686 514.488C175.31 513.192 173.456 511.428 172.124 509.196C170.828 506.964 170.18 504.426 170.18 501.582C170.18 498.702 170.81 496.164 172.07 493.968C173.366 491.736 175.13 489.99 177.362 488.73C179.63 487.47 182.204 486.84 185.084 486.84C187.892 486.84 190.394 487.452 192.59 488.676C194.786 489.9 196.514 491.628 197.774 493.86C199.034 496.092 199.664 498.72 199.664 501.744C199.664 502.032 199.646 502.356 199.61 502.716C199.61 503.076 199.592 503.418 199.556 503.742H175.526V499.26H195.992L193.346 500.664C193.382 499.008 193.04 497.55 192.32 496.29C191.6 495.03 190.61 494.04 189.35 493.32C188.126 492.6 186.704 492.24 185.084 492.24C183.428 492.24 181.97 492.6 180.71 493.32C179.486 494.04 178.514 495.048 177.794 496.344C177.11 497.604 176.768 499.098 176.768 500.826V501.906C176.768 503.634 177.164 505.164 177.956 506.496C178.748 507.828 179.864 508.854 181.304 509.574C182.744 510.294 184.4 510.654 186.272 510.654C187.892 510.654 189.35 510.402 190.646 509.898C191.942 509.394 193.094 508.602 194.102 507.522L197.72 511.68C196.424 513.192 194.786 514.362 192.806 515.19C190.862 515.982 188.63 516.378 186.11 516.378Z" fill="#F5EFE8"/>
<path d="M205.067 516V487.164H211.493V495.102L210.737 492.78C211.601 490.836 212.951 489.36 214.787 488.352C216.659 487.344 218.981 486.84 221.753 486.84V493.266C221.465 493.194 221.195 493.158 220.943 493.158C220.691 493.122 220.439 493.104 220.187 493.104C217.631 493.104 215.597 493.86 214.085 495.372C212.573 496.848 211.817 499.062 211.817 502.014V516H205.067Z" fill="#F5EFE8"/>
<path d="M226.4 516V487.164H233.15V516H226.4ZM229.802 482.412C228.542 482.412 227.498 482.016 226.67 481.224C225.878 480.432 225.482 479.478 225.482 478.362C225.482 477.21 225.878 476.256 226.67 475.5C227.498 474.708 228.542 474.312 229.802 474.312C231.062 474.312 232.088 474.69 232.88 475.446C233.708 476.166 234.122 477.084 234.122 478.2C234.122 479.388 233.726 480.396 232.934 481.224C232.142 482.016 231.098 482.412 229.802 482.412Z" fill="#F5EFE8"/>
<path d="M254.483 516.378C251.279 516.378 248.471 515.748 246.059 514.488C243.683 513.192 241.829 511.428 240.497 509.196C239.201 506.964 238.553 504.426 238.553 501.582C238.553 498.702 239.183 496.164 240.443 493.968C241.739 491.736 243.503 489.99 245.735 488.73C248.003 487.47 250.577 486.84 253.457 486.84C256.265 486.84 258.767 487.452 260.963 488.676C263.159 489.9 264.887 491.628 266.147 493.86C267.407 496.092 268.037 498.72 268.037 501.744C268.037 502.032 268.019 502.356 267.983 502.716C267.983 503.076 267.965 503.418 267.929 503.742H243.899V499.26H264.365L261.719 500.664C261.755 499.008 261.413 497.55 260.693 496.29C259.973 495.03 258.983 494.04 257.723 493.32C256.499 492.6 255.077 492.24 253.457 492.24C251.801 492.24 250.343 492.6 249.083 493.32C247.859 494.04 246.887 495.048 246.167 496.344C245.483 497.604 245.141 499.098 245.141 500.826V501.906C245.141 503.634 245.537 505.164 246.329 506.496C247.121 507.828 248.237 508.854 249.677 509.574C251.117 510.294 252.773 510.654 254.645 510.654C256.265 510.654 257.723 510.402 259.019 509.898C260.315 509.394 261.467 508.602 262.475 507.522L266.093 511.68C264.797 513.192 263.159 514.362 261.179 515.19C259.235 515.982 257.003 516.378 254.483 516.378Z" fill="#F5EFE8"/>
<path d="M273.441 516V487.164H279.867V494.94L278.733 492.564C279.741 490.728 281.199 489.324 283.107 488.352C285.051 487.344 287.283 486.84 289.803 486.84C292.107 486.84 294.159 487.29 295.959 488.19C297.795 489.09 299.235 490.476 300.279 492.348C301.323 494.184 301.845 496.56 301.845 499.476V516H295.095V500.34C295.095 497.784 294.483 495.876 293.259 494.616C292.071 493.356 290.397 492.726 288.237 492.726C286.653 492.726 285.249 493.05 284.025 493.698C282.801 494.346 281.847 495.318 281.163 496.614C280.515 497.874 280.191 499.476 280.191 501.42V516H273.441Z" fill="#F5EFE8"/>
<path d="M322.61 516.378C319.586 516.378 316.886 515.748 314.51 514.488C312.17 513.192 310.334 511.428 309.002 509.196C307.67 506.964 307.004 504.426 307.004 501.582C307.004 498.702 307.67 496.164 309.002 493.968C310.334 491.736 312.17 489.99 314.51 488.73C316.886 487.47 319.586 486.84 322.61 486.84C325.418 486.84 327.884 487.416 330.008 488.568C332.168 489.684 333.806 491.34 334.922 493.536L329.738 496.56C328.874 495.192 327.812 494.184 326.552 493.536C325.328 492.888 323.996 492.564 322.556 492.564C320.9 492.564 319.406 492.924 318.074 493.644C316.742 494.364 315.698 495.408 314.942 496.776C314.186 498.108 313.808 499.71 313.808 501.582C313.808 503.454 314.186 505.074 314.942 506.442C315.698 507.774 316.742 508.8 318.074 509.52C319.406 510.24 320.9 510.6 322.556 510.6C323.996 510.6 325.328 510.276 326.552 509.628C327.812 508.98 328.874 507.972 329.738 506.604L334.922 509.628C333.806 511.788 332.168 513.462 330.008 514.65C327.884 515.802 325.418 516.378 322.61 516.378Z" fill="#F5EFE8"/>
<path d="M352.809 516.378C349.605 516.378 346.797 515.748 344.385 514.488C342.009 513.192 340.155 511.428 338.823 509.196C337.527 506.964 336.879 504.426 336.879 501.582C336.879 498.702 337.509 496.164 338.769 493.968C340.065 491.736 341.829 489.99 344.061 488.73C346.329 487.47 348.903 486.84 351.783 486.84C354.591 486.84 357.093 487.452 359.289 488.676C361.485 489.9 363.213 491.628 364.473 493.86C365.733 496.092 366.363 498.72 366.363 501.744C366.363 502.032 366.345 502.356 366.309 502.716C366.309 503.076 366.291 503.418 366.255 503.742H342.225V499.26H362.691L360.045 500.664C360.081 499.008 359.739 497.55 359.019 496.29C358.299 495.03 357.309 494.04 356.049 493.32C354.825 492.6 353.403 492.24 351.783 492.24C350.127 492.24 348.669 492.6 347.409 493.32C346.185 494.04 345.213 495.048 344.493 496.344C343.809 497.604 343.467 499.098 343.467 500.826V501.906C343.467 503.634 343.863 505.164 344.655 506.496C345.447 507.828 346.563 508.854 348.003 509.574C349.443 510.294 351.099 510.654 352.971 510.654C354.591 510.654 356.049 510.402 357.345 509.898C358.641 509.394 359.793 508.602 360.801 507.522L364.419 511.68C363.123 513.192 361.485 514.362 359.505 515.19C357.561 515.982 355.329 516.378 352.809 516.378Z" fill="#F5EFE8"/>
<path d="M385.611 516V475.932H392.361V516H385.611Z" fill="#F5EFE8"/>
<path d="M400.14 516V487.164H406.89V516H400.14ZM403.542 482.412C402.282 482.412 401.238 482.016 400.41 481.224C399.618 480.432 399.222 479.478 399.222 478.362C399.222 477.21 399.618 476.256 400.41 475.5C401.238 474.708 402.282 474.312 403.542 474.312C404.802 474.312 405.828 474.69 406.62 475.446C407.448 476.166 407.862 477.084 407.862 478.2C407.862 479.388 407.466 480.396 406.674 481.224C405.882 482.016 404.838 482.412 403.542 482.412Z" fill="#F5EFE8"/>
<path d="M415.588 516V485.544C415.588 482.52 416.47 480.108 418.234 478.308C420.034 476.472 422.59 475.554 425.902 475.554C427.09 475.554 428.206 475.68 429.25 475.932C430.33 476.184 431.23 476.58 431.95 477.12L430.114 482.196C429.61 481.8 429.034 481.512 428.386 481.332C427.738 481.116 427.072 481.008 426.388 481.008C424.984 481.008 423.922 481.404 423.202 482.196C422.482 482.952 422.122 484.104 422.122 485.652V488.892L422.338 491.916V516H415.588ZM410.836 492.78V487.38H430.06V492.78H410.836Z" fill="#F5EFE8"/>
<path d="M446.655 516.378C443.451 516.378 440.643 515.748 438.231 514.488C435.855 513.192 434.001 511.428 432.669 509.196C431.373 506.964 430.725 504.426 430.725 501.582C430.725 498.702 431.355 496.164 432.615 493.968C433.911 491.736 435.675 489.99 437.907 488.73C440.175 487.47 442.749 486.84 445.629 486.84C448.437 486.84 450.939 487.452 453.135 488.676C455.331 489.9 457.059 491.628 458.319 493.86C459.579 496.092 460.209 498.72 460.209 501.744C460.209 502.032 460.191 502.356 460.155 502.716C460.155 503.076 460.137 503.418 460.101 503.742H436.071V499.26H456.537L453.891 500.664C453.927 499.008 453.585 497.55 452.865 496.29C452.145 495.03 451.155 494.04 449.895 493.32C448.671 492.6 447.249 492.24 445.629 492.24C443.973 492.24 442.515 492.6 441.255 493.32C440.031 494.04 439.059 495.048 438.339 496.344C437.655 497.604 437.313 499.098 437.313 500.826V501.906C437.313 503.634 437.709 505.164 438.501 506.496C439.293 507.828 440.409 508.854 441.849 509.574C443.289 510.294 444.945 510.654 446.817 510.654C448.437 510.654 449.895 510.402 451.191 509.898C452.487 509.394 453.639 508.602 454.647 507.522L458.265 511.68C456.969 513.192 455.331 514.362 453.351 515.19C451.407 515.982 449.175 516.378 446.655 516.378Z" fill="#F5EFE8"/>
<path d="M479.457 516V487.164H486.207V516H479.457ZM482.859 482.412C481.599 482.412 480.555 482.016 479.727 481.224C478.935 480.432 478.539 479.478 478.539 478.362C478.539 477.21 478.935 476.256 479.727 475.5C480.555 474.708 481.599 474.312 482.859 474.312C484.119 474.312 485.145 474.69 485.937 475.446C486.765 476.166 487.179 477.084 487.179 478.2C487.179 479.388 486.783 480.396 485.991 481.224C485.199 482.016 484.155 482.412 482.859 482.412Z" fill="#F5EFE8"/>
<path d="M493.986 516V487.164H500.412V494.94L499.278 492.564C500.286 490.728 501.744 489.324 503.652 488.352C505.596 487.344 507.828 486.84 510.348 486.84C512.652 486.84 514.704 487.29 516.504 488.19C518.34 489.09 519.78 490.476 520.824 492.348C521.868 494.184 522.39 496.56 522.39 499.476V516H515.64V500.34C515.64 497.784 515.028 495.876 513.804 494.616C512.616 493.356 510.942 492.726 508.782 492.726C507.198 492.726 505.794 493.05 504.57 493.698C503.346 494.346 502.392 495.318 501.708 496.614C501.06 497.874 500.736 499.476 500.736 501.42V516H493.986Z" fill="#F5EFE8"/>
<path d="M552.627 516.378C550.215 516.378 547.893 516.072 545.661 515.46C543.465 514.812 541.719 514.038 540.423 513.138L543.015 508.008C544.311 508.836 545.859 509.52 547.659 510.06C549.459 510.6 551.259 510.87 553.059 510.87C555.183 510.87 556.713 510.582 557.649 510.006C558.621 509.43 559.107 508.656 559.107 507.684C559.107 506.892 558.783 506.298 558.135 505.902C557.487 505.47 556.641 505.146 555.597 504.93C554.553 504.714 553.383 504.516 552.087 504.336C550.827 504.156 549.549 503.922 548.253 503.634C546.993 503.31 545.841 502.86 544.797 502.284C543.753 501.672 542.907 500.862 542.259 499.854C541.611 498.846 541.287 497.514 541.287 495.858C541.287 494.022 541.809 492.438 542.853 491.106C543.897 489.738 545.355 488.694 547.227 487.974C549.135 487.218 551.385 486.84 553.977 486.84C555.921 486.84 557.883 487.056 559.863 487.488C561.843 487.92 563.481 488.532 564.777 489.324L562.185 494.454C560.817 493.626 559.431 493.068 558.027 492.78C556.659 492.456 555.291 492.294 553.923 492.294C551.871 492.294 550.341 492.6 549.333 493.212C548.361 493.824 547.875 494.598 547.875 495.534C547.875 496.398 548.199 497.046 548.847 497.478C549.495 497.91 550.341 498.252 551.385 498.504C552.429 498.756 553.581 498.972 554.841 499.152C556.137 499.296 557.415 499.53 558.675 499.854C559.935 500.178 561.087 500.628 562.131 501.204C563.211 501.744 564.075 502.518 564.723 503.526C565.371 504.534 565.695 505.848 565.695 507.468C565.695 509.268 565.155 510.834 564.075 512.166C563.031 513.498 561.537 514.542 559.593 515.298C557.649 516.018 555.327 516.378 552.627 516.378Z" fill="#E8702A"/>
<path d="M583.388 516.378C580.436 516.378 577.808 515.748 575.504 514.488C573.2 513.192 571.382 511.428 570.05 509.196C568.718 506.964 568.052 504.426 568.052 501.582C568.052 498.702 568.718 496.164 570.05 493.968C571.382 491.736 573.2 489.99 575.504 488.73C577.808 487.47 580.436 486.84 583.388 486.84C586.376 486.84 589.022 487.47 591.326 488.73C593.666 489.99 595.484 491.718 596.78 493.914C598.112 496.11 598.778 498.666 598.778 501.582C598.778 504.426 598.112 506.964 596.78 509.196C595.484 511.428 593.666 513.192 591.326 514.488C589.022 515.748 586.376 516.378 583.388 516.378ZM583.388 510.6C585.044 510.6 586.52 510.24 587.816 509.52C589.112 508.8 590.12 507.756 590.84 506.388C591.596 505.02 591.974 503.418 591.974 501.582C591.974 499.71 591.596 498.108 590.84 496.776C590.12 495.408 589.112 494.364 587.816 493.644C586.52 492.924 585.062 492.564 583.442 492.564C581.786 492.564 580.31 492.924 579.014 493.644C577.754 494.364 576.746 495.408 575.99 496.776C575.234 498.108 574.856 499.71 574.856 501.582C574.856 503.418 575.234 505.02 575.99 506.388C576.746 507.756 577.754 508.8 579.014 509.52C580.31 510.24 581.768 510.6 583.388 510.6Z" fill="#E8702A"/>
<path d="M604.153 516V487.164H610.579V494.832L609.445 492.564C610.417 490.692 611.821 489.27 613.657 488.298C615.529 487.326 617.653 486.84 620.029 486.84C622.729 486.84 625.069 487.506 627.049 488.838C629.065 490.17 630.397 492.186 631.045 494.886L628.399 493.968C629.335 491.808 630.883 490.08 633.043 488.784C635.203 487.488 637.705 486.84 640.549 486.84C642.853 486.84 644.887 487.29 646.651 488.19C648.451 489.09 649.855 490.476 650.863 492.348C651.871 494.184 652.375 496.56 652.375 499.476V516H645.625V500.34C645.625 497.784 645.067 495.876 643.951 494.616C642.835 493.356 641.233 492.726 639.145 492.726C637.669 492.726 636.355 493.05 635.203 493.698C634.087 494.346 633.205 495.3 632.557 496.56C631.945 497.82 631.639 499.422 631.639 501.366V516H624.889V500.34C624.889 497.784 624.331 495.876 623.215 494.616C622.099 493.356 620.497 492.726 618.409 492.726C616.933 492.726 615.619 493.05 614.467 493.698C613.351 494.346 612.469 495.3 611.821 496.56C611.209 497.82 610.903 499.422 610.903 501.366V516H604.153Z" fill="#E8702A"/>
<path d="M673.527 516.378C670.323 516.378 667.515 515.748 665.103 514.488C662.727 513.192 660.873 511.428 659.541 509.196C658.245 506.964 657.597 504.426 657.597 501.582C657.597 498.702 658.227 496.164 659.487 493.968C660.783 491.736 662.547 489.99 664.779 488.73C667.047 487.47 669.621 486.84 672.501 486.84C675.309 486.84 677.811 487.452 680.007 488.676C682.203 489.9 683.931 491.628 685.191 493.86C686.451 496.092 687.081 498.72 687.081 501.744C687.081 502.032 687.063 502.356 687.027 502.716C687.027 503.076 687.009 503.418 686.973 503.742H662.943V499.26H683.409L680.763 500.664C680.799 499.008 680.457 497.55 679.737 496.29C679.017 495.03 678.027 494.04 676.767 493.32C675.543 492.6 674.121 492.24 672.501 492.24C670.845 492.24 669.387 492.6 668.127 493.32C666.903 494.04 665.931 495.048 665.211 496.344C664.527 497.604 664.185 499.098 664.185 500.826V501.906C664.185 503.634 664.581 505.164 665.373 506.496C666.165 507.828 667.281 508.854 668.721 509.574C670.161 510.294 671.817 510.654 673.689 510.654C675.309 510.654 676.767 510.402 678.063 509.898C679.359 509.394 680.511 508.602 681.519 507.522L685.137 511.68C683.841 513.192 682.203 514.362 680.223 515.19C678.279 515.982 676.047 516.378 673.527 516.378Z" fill="#E8702A"/>
<path d="M705.445 516.378C702.493 516.378 699.865 515.748 697.561 514.488C695.257 513.192 693.439 511.428 692.107 509.196C690.775 506.964 690.109 504.426 690.109 501.582C690.109 498.702 690.775 496.164 692.107 493.968C693.439 491.736 695.257 489.99 697.561 488.73C699.865 487.47 702.493 486.84 705.445 486.84C708.433 486.84 711.079 487.47 713.383 488.73C715.723 489.99 717.541 491.718 718.837 493.914C720.169 496.11 720.835 498.666 720.835 501.582C720.835 504.426 720.169 506.964 718.837 509.196C717.541 511.428 715.723 513.192 713.383 514.488C711.079 515.748 708.433 516.378 705.445 516.378ZM705.445 510.6C707.101 510.6 708.577 510.24 709.873 509.52C711.169 508.8 712.177 507.756 712.897 506.388C713.653 505.02 714.031 503.418 714.031 501.582C714.031 499.71 713.653 498.108 712.897 496.776C712.177 495.408 711.169 494.364 709.873 493.644C708.577 492.924 707.119 492.564 705.499 492.564C703.843 492.564 702.367 492.924 701.071 493.644C699.811 494.364 698.803 495.408 698.047 496.776C697.291 498.108 696.913 499.71 696.913 501.582C696.913 503.418 697.291 505.02 698.047 506.388C698.803 507.756 699.811 508.8 701.071 509.52C702.367 510.24 703.825 510.6 705.445 510.6Z" fill="#E8702A"/>
<path d="M726.21 516V487.164H732.636V494.94L731.502 492.564C732.51 490.728 733.968 489.324 735.876 488.352C737.82 487.344 740.052 486.84 742.572 486.84C744.876 486.84 746.928 487.29 748.728 488.19C750.564 489.09 752.004 490.476 753.048 492.348C754.092 494.184 754.614 496.56 754.614 499.476V516H747.864V500.34C747.864 497.784 747.252 495.876 746.028 494.616C744.84 493.356 743.166 492.726 741.006 492.726C739.422 492.726 738.018 493.05 736.794 493.698C735.57 494.346 734.616 495.318 733.932 496.614C733.284 497.874 732.96 499.476 732.96 501.42V516H726.21Z" fill="#E8702A"/>
<path d="M775.703 516.378C772.499 516.378 769.691 515.748 767.279 514.488C764.903 513.192 763.049 511.428 761.717 509.196C760.421 506.964 759.773 504.426 759.773 501.582C759.773 498.702 760.403 496.164 761.663 493.968C762.959 491.736 764.723 489.99 766.955 488.73C769.223 487.47 771.797 486.84 774.677 486.84C777.485 486.84 779.987 487.452 782.183 488.676C784.379 489.9 786.107 491.628 787.367 493.86C788.627 496.092 789.257 498.72 789.257 501.744C789.257 502.032 789.239 502.356 789.203 502.716C789.203 503.076 789.185 503.418 789.149 503.742H765.119V499.26H785.585L782.939 500.664C782.975 499.008 782.633 497.55 781.913 496.29C781.193 495.03 780.203 494.04 778.943 493.32C777.719 492.6 776.297 492.24 774.677 492.24C773.021 492.24 771.563 492.6 770.303 493.32C769.079 494.04 768.107 495.048 767.387 496.344C766.703 497.604 766.361 499.098 766.361 500.826V501.906C766.361 503.634 766.757 505.164 767.549 506.496C768.341 507.828 769.457 508.854 770.897 509.574C772.337 510.294 773.993 510.654 775.865 510.654C777.485 510.654 778.943 510.402 780.239 509.898C781.535 509.394 782.687 508.602 783.695 507.522L787.313 511.68C786.017 513.192 784.379 514.362 782.399 515.19C780.455 515.982 778.223 516.378 775.703 516.378Z" fill="#E8702A"/>
<path d="M822.059 516.378C818.855 516.378 816.047 515.748 813.635 514.488C811.259 513.192 809.405 511.428 808.073 509.196C806.777 506.964 806.129 504.426 806.129 501.582C806.129 498.702 806.759 496.164 808.019 493.968C809.315 491.736 811.079 489.99 813.311 488.73C815.579 487.47 818.153 486.84 821.033 486.84C823.841 486.84 826.343 487.452 828.539 488.676C830.735 489.9 832.463 491.628 833.723 493.86C834.983 496.092 835.613 498.72 835.613 501.744C835.613 502.032 835.595 502.356 835.559 502.716C835.559 503.076 835.541 503.418 835.505 503.742H811.475V499.26H831.941L829.295 500.664C829.331 499.008 828.989 497.55 828.269 496.29C827.549 495.03 826.559 494.04 825.299 493.32C824.075 492.6 822.653 492.24 821.033 492.24C819.377 492.24 817.919 492.6 816.659 493.32C815.435 494.04 814.463 495.048 813.743 496.344C813.059 497.604 812.717 499.098 812.717 500.826V501.906C812.717 503.634 813.113 505.164 813.905 506.496C814.697 507.828 815.813 508.854 817.253 509.574C818.693 510.294 820.349 510.654 822.221 510.654C823.841 510.654 825.299 510.402 826.595 509.898C827.891 509.394 829.043 508.602 830.051 507.522L833.669 511.68C832.373 513.192 830.735 514.362 828.755 515.19C826.811 515.982 824.579 516.378 822.059 516.378Z" fill="#E8702A"/>
<path d="M841.017 516V475.932H847.767V516H841.017Z" fill="#E8702A"/>
<path d="M864.456 516.378C862.044 516.378 859.722 516.072 857.49 515.46C855.294 514.812 853.548 514.038 852.252 513.138L854.844 508.008C856.14 508.836 857.688 509.52 859.488 510.06C861.288 510.6 863.088 510.87 864.888 510.87C867.012 510.87 868.542 510.582 869.478 510.006C870.45 509.43 870.936 508.656 870.936 507.684C870.936 506.892 870.612 506.298 869.964 505.902C869.316 505.47 868.47 505.146 867.426 504.93C866.382 504.714 865.212 504.516 863.916 504.336C862.656 504.156 861.378 503.922 860.082 503.634C858.822 503.31 857.67 502.86 856.626 502.284C855.582 501.672 854.736 500.862 854.088 499.854C853.44 498.846 853.116 497.514 853.116 495.858C853.116 494.022 853.638 492.438 854.682 491.106C855.726 489.738 857.184 488.694 859.056 487.974C860.964 487.218 863.214 486.84 865.806 486.84C867.75 486.84 869.712 487.056 871.692 487.488C873.672 487.92 875.31 488.532 876.606 489.324L874.014 494.454C872.646 493.626 871.26 493.068 869.856 492.78C868.488 492.456 867.12 492.294 865.752 492.294C863.7 492.294 862.17 492.6 861.162 493.212C860.19 493.824 859.704 494.598 859.704 495.534C859.704 496.398 860.028 497.046 860.676 497.478C861.324 497.91 862.17 498.252 863.214 498.504C864.258 498.756 865.41 498.972 866.67 499.152C867.966 499.296 869.244 499.53 870.504 499.854C871.764 500.178 872.916 500.628 873.96 501.204C875.04 501.744 875.904 502.518 876.552 503.526C877.2 504.534 877.524 505.848 877.524 507.468C877.524 509.268 876.984 510.834 875.904 512.166C874.86 513.498 873.366 514.542 871.422 515.298C869.478 516.018 867.156 516.378 864.456 516.378Z" fill="#E8702A"/>
<path d="M895.811 516.378C892.607 516.378 889.799 515.748 887.387 514.488C885.011 513.192 883.157 511.428 881.825 509.196C880.529 506.964 879.881 504.426 879.881 501.582C879.881 498.702 880.511 496.164 881.771 493.968C883.067 491.736 884.831 489.99 887.063 488.73C889.331 487.47 891.905 486.84 894.785 486.84C897.593 486.84 900.095 487.452 902.291 488.676C904.487 489.9 906.215 491.628 907.475 493.86C908.735 496.092 909.365 498.72 909.365 501.744C909.365 502.032 909.347 502.356 909.311 502.716C909.311 503.076 909.293 503.418 909.257 503.742H885.227V499.26H905.693L903.047 500.664C903.083 499.008 902.741 497.55 902.021 496.29C901.301 495.03 900.311 494.04 899.051 493.32C897.827 492.6 896.405 492.24 894.785 492.24C893.129 492.24 891.671 492.6 890.411 493.32C889.187 494.04 888.215 495.048 887.495 496.344C886.811 497.604 886.469 499.098 886.469 500.826V501.906C886.469 503.634 886.865 505.164 887.657 506.496C888.449 507.828 889.565 508.854 891.005 509.574C892.445 510.294 894.101 510.654 895.973 510.654C897.593 510.654 899.051 510.402 900.347 509.898C901.643 509.394 902.795 508.602 903.803 507.522L907.421 511.68C906.125 513.192 904.487 514.362 902.507 515.19C900.563 515.982 898.331 516.378 895.811 516.378Z" fill="#E8702A"/>
<path d="M912.742 493.158L912.31 478.2H918.142L917.656 493.158H912.742Z" fill="#E8702A"/>
<path d="M933.409 516.378C930.997 516.378 928.675 516.072 926.443 515.46C924.247 514.812 922.501 514.038 921.205 513.138L923.797 508.008C925.093 508.836 926.641 509.52 928.441 510.06C930.241 510.6 932.041 510.87 933.841 510.87C935.965 510.87 937.495 510.582 938.431 510.006C939.403 509.43 939.889 508.656 939.889 507.684C939.889 506.892 939.565 506.298 938.917 505.902C938.269 505.47 937.423 505.146 936.379 504.93C935.335 504.714 934.165 504.516 932.869 504.336C931.609 504.156 930.331 503.922 929.035 503.634C927.775 503.31 926.623 502.86 925.579 502.284C924.535 501.672 923.689 500.862 923.041 499.854C922.393 498.846 922.069 497.514 922.069 495.858C922.069 494.022 922.591 492.438 923.635 491.106C924.679 489.738 926.137 488.694 928.009 487.974C929.917 487.218 932.167 486.84 934.759 486.84C936.703 486.84 938.665 487.056 940.645 487.488C942.625 487.92 944.263 488.532 945.559 489.324L942.967 494.454C941.599 493.626 940.213 493.068 938.809 492.78C937.441 492.456 936.073 492.294 934.705 492.294C932.653 492.294 931.123 492.6 930.115 493.212C929.143 493.824 928.657 494.598 928.657 495.534C928.657 496.398 928.981 497.046 929.629 497.478C930.277 497.91 931.123 498.252 932.167 498.504C933.211 498.756 934.363 498.972 935.623 499.152C936.919 499.296 938.197 499.53 939.457 499.854C940.717 500.178 941.869 500.628 942.913 501.204C943.993 501.744 944.857 502.518 945.505 503.526C946.153 504.534 946.477 505.848 946.477 507.468C946.477 509.268 945.937 510.834 944.857 512.166C943.813 513.498 942.319 514.542 940.375 515.298C938.431 516.018 936.109 516.378 933.409 516.378Z" fill="#E8702A"/>
<path d="M973.964 516.378C971.552 516.378 969.23 516.072 966.998 515.46C964.802 514.812 963.056 514.038 961.76 513.138L964.352 508.008C965.648 508.836 967.196 509.52 968.996 510.06C970.796 510.6 972.596 510.87 974.396 510.87C976.52 510.87 978.05 510.582 978.986 510.006C979.958 509.43 980.444 508.656 980.444 507.684C980.444 506.892 980.12 506.298 979.472 505.902C978.824 505.47 977.978 505.146 976.934 504.93C975.89 504.714 974.72 504.516 973.424 504.336C972.164 504.156 970.886 503.922 969.59 503.634C968.33 503.31 967.178 502.86 966.134 502.284C965.09 501.672 964.244 500.862 963.596 499.854C962.948 498.846 962.624 497.514 962.624 495.858C962.624 494.022 963.146 492.438 964.19 491.106C965.234 489.738 966.692 488.694 968.564 487.974C970.472 487.218 972.722 486.84 975.314 486.84C977.258 486.84 979.22 487.056 981.2 487.488C983.18 487.92 984.818 488.532 986.114 489.324L983.522 494.454C982.154 493.626 980.768 493.068 979.364 492.78C977.996 492.456 976.628 492.294 975.26 492.294C973.208 492.294 971.678 492.6 970.67 493.212C969.698 493.824 969.212 494.598 969.212 495.534C969.212 496.398 969.536 497.046 970.184 497.478C970.832 497.91 971.678 498.252 972.722 498.504C973.766 498.756 974.918 498.972 976.178 499.152C977.474 499.296 978.752 499.53 980.012 499.854C981.272 500.178 982.424 500.628 983.468 501.204C984.548 501.744 985.412 502.518 986.06 503.526C986.708 504.534 987.032 505.848 987.032 507.468C987.032 509.268 986.492 510.834 985.412 512.166C984.368 513.498 982.874 514.542 980.93 515.298C978.986 516.018 976.664 516.378 973.964 516.378Z" fill="#E8702A"/>
<path d="M991.765 516V475.932H998.515V494.94L997.057 492.564C998.065 490.728 999.523 489.324 1001.43 488.352C1003.38 487.344 1005.61 486.84 1008.13 486.84C1010.43 486.84 1012.48 487.29 1014.28 488.19C1016.12 489.09 1017.56 490.476 1018.6 492.348C1019.65 494.184 1020.17 496.56 1020.17 499.476V516H1013.42V500.34C1013.42 497.784 1012.81 495.876 1011.58 494.616C1010.4 493.356 1008.72 492.726 1006.56 492.726C1004.98 492.726 1003.57 493.05 1002.35 493.698C1001.13 494.346 1000.17 495.318 999.487 496.614C998.839 497.874 998.515 499.476 998.515 501.42V516H991.765Z" fill="#E8702A"/>
<path d="M1040.66 516.378C1037.71 516.378 1035.08 515.748 1032.78 514.488C1030.48 513.192 1028.66 511.428 1027.33 509.196C1025.99 506.964 1025.33 504.426 1025.33 501.582C1025.33 498.702 1025.99 496.164 1027.33 493.968C1028.66 491.736 1030.48 489.99 1032.78 488.73C1035.08 487.47 1037.71 486.84 1040.66 486.84C1043.65 486.84 1046.3 487.47 1048.6 488.73C1050.94 489.99 1052.76 491.718 1054.06 493.914C1055.39 496.11 1056.05 498.666 1056.05 501.582C1056.05 504.426 1055.39 506.964 1054.06 509.196C1052.76 511.428 1050.94 513.192 1048.6 514.488C1046.3 515.748 1043.65 516.378 1040.66 516.378ZM1040.66 510.6C1042.32 510.6 1043.8 510.24 1045.09 509.52C1046.39 508.8 1047.4 507.756 1048.12 506.388C1048.87 505.02 1049.25 503.418 1049.25 501.582C1049.25 499.71 1048.87 498.108 1048.12 496.776C1047.4 495.408 1046.39 494.364 1045.09 493.644C1043.8 492.924 1042.34 492.564 1040.72 492.564C1039.06 492.564 1037.59 492.924 1036.29 493.644C1035.03 494.364 1034.02 495.408 1033.27 496.776C1032.51 498.108 1032.13 499.71 1032.13 501.582C1032.13 503.418 1032.51 505.02 1033.27 506.388C1034.02 507.756 1035.03 508.8 1036.29 509.52C1037.59 510.24 1039.04 510.6 1040.66 510.6Z" fill="#E8702A"/>
<path d="M1074.98 516.378C1071.78 516.378 1068.97 515.748 1066.56 514.488C1064.18 513.192 1062.33 511.428 1061 509.196C1059.7 506.964 1059.05 504.426 1059.05 501.582C1059.05 498.702 1059.68 496.164 1060.94 493.968C1062.24 491.736 1064 489.99 1066.24 488.73C1068.5 487.47 1071.08 486.84 1073.96 486.84C1076.77 486.84 1079.27 487.452 1081.46 488.676C1083.66 489.9 1085.39 491.628 1086.65 493.86C1087.91 496.092 1088.54 498.72 1088.54 501.744C1088.54 502.032 1088.52 502.356 1088.48 502.716C1088.48 503.076 1088.47 503.418 1088.43 503.742H1064.4V499.26H1084.87L1082.22 500.664C1082.26 499.008 1081.91 497.55 1081.19 496.29C1080.47 495.03 1079.48 494.04 1078.22 493.32C1077 492.6 1075.58 492.24 1073.96 492.24C1072.3 492.24 1070.84 492.6 1069.58 493.32C1068.36 494.04 1067.39 495.048 1066.67 496.344C1065.98 497.604 1065.64 499.098 1065.64 500.826V501.906C1065.64 503.634 1066.04 505.164 1066.83 506.496C1067.62 507.828 1068.74 508.854 1070.18 509.574C1071.62 510.294 1073.27 510.654 1075.15 510.654C1076.77 510.654 1078.22 510.402 1079.52 509.898C1080.82 509.394 1081.97 508.602 1082.98 507.522L1086.59 511.68C1085.3 513.192 1083.66 514.362 1081.68 515.19C1079.74 515.982 1077.5 516.378 1074.98 516.378Z" fill="#E8702A"/>
<path d="M1102.85 516.378C1100.44 516.378 1098.12 516.072 1095.89 515.46C1093.69 514.812 1091.94 514.038 1090.65 513.138L1093.24 508.008C1094.54 508.836 1096.08 509.52 1097.88 510.06C1099.68 510.6 1101.48 510.87 1103.28 510.87C1105.41 510.87 1106.94 510.582 1107.87 510.006C1108.85 509.43 1109.33 508.656 1109.33 507.684C1109.33 506.892 1109.01 506.298 1108.36 505.902C1107.71 505.47 1106.87 505.146 1105.82 504.93C1104.78 504.714 1103.61 504.516 1102.31 504.336C1101.05 504.156 1099.77 503.922 1098.48 503.634C1097.22 503.31 1096.07 502.86 1095.02 502.284C1093.98 501.672 1093.13 500.862 1092.48 499.854C1091.84 498.846 1091.51 497.514 1091.51 495.858C1091.51 494.022 1092.03 492.438 1093.08 491.106C1094.12 489.738 1095.58 488.694 1097.45 487.974C1099.36 487.218 1101.61 486.84 1104.2 486.84C1106.15 486.84 1108.11 487.056 1110.09 487.488C1112.07 487.92 1113.71 488.532 1115 489.324L1112.41 494.454C1111.04 493.626 1109.66 493.068 1108.25 492.78C1106.88 492.456 1105.52 492.294 1104.15 492.294C1102.1 492.294 1100.57 492.6 1099.56 493.212C1098.59 493.824 1098.1 494.598 1098.1 495.534C1098.1 496.398 1098.42 497.046 1099.07 497.478C1099.72 497.91 1100.57 498.252 1101.61 498.504C1102.65 498.756 1103.81 498.972 1105.07 499.152C1106.36 499.296 1107.64 499.53 1108.9 499.854C1110.16 500.178 1111.31 500.628 1112.36 501.204C1113.44 501.744 1114.3 502.518 1114.95 503.526C1115.6 504.534 1115.92 505.848 1115.92 507.468C1115.92 509.268 1115.38 510.834 1114.3 512.166C1113.26 513.498 1111.76 514.542 1109.82 515.298C1107.87 516.018 1105.55 516.378 1102.85 516.378Z" fill="#E8702A"/>
<path d="M1122.81 516.378C1121.59 516.378 1120.54 515.964 1119.68 515.136C1118.82 514.272 1118.38 513.192 1118.38 511.896C1118.38 510.528 1118.82 509.448 1119.68 508.656C1120.54 507.828 1121.59 507.414 1122.81 507.414C1124.04 507.414 1125.08 507.828 1125.94 508.656C1126.81 509.448 1127.24 510.528 1127.24 511.896C1127.24 513.192 1126.81 514.272 1125.94 515.136C1125.08 515.964 1124.04 516.378 1122.81 516.378Z" fill="#F5EFE8"/>
</svg>
