<svg width="300" height="200" viewBox="0 0 300 200" fill="none" xmlns="http://www.w3.org/2000/svg">
<rect x="100" width="100" height="200" fill="#2EC4B6"/>
<circle cx="200" cy="100" r="100" fill="#2EC4B6"/>
<circle cx="100" cy="100" r="100" fill="#2EC4B6"/>
<rect x="100" y="25" width="100" height="150" fill="#FDFFFC"/>
<circle cx="200" cy="100" r="75" fill="#FDFFFC"/>
<circle cx="100" cy="100" r="75" fill="#FDFFFC"/>
<path d="M71.9015 147.536C64.7335 147.536 57.8642 146.597 51.2935 144.72C44.7228 142.757 39.4322 140.24 35.4215 137.168L42.4615 121.552C46.3015 124.283 50.8242 126.544 56.0295 128.336C61.3202 130.043 66.6535 130.896 72.0295 130.896C76.1255 130.896 79.4108 130.512 81.8855 129.744C84.4455 128.891 86.3228 127.739 87.5175 126.288C88.7122 124.837 89.3095 123.173 89.3095 121.296C89.3095 118.907 88.3708 117.029 86.4935 115.664C84.6162 114.213 82.1415 113.061 79.0695 112.208C75.9975 111.269 72.5842 110.416 68.8295 109.648C65.1602 108.795 61.4482 107.771 57.6935 106.576C54.0242 105.381 50.6535 103.845 47.5815 101.968C44.5095 100.091 41.9922 97.616 40.0295 94.544C38.1522 91.472 37.2135 87.5467 37.2135 82.768C37.2135 77.648 38.5788 72.9973 41.3095 68.816C44.1255 64.5493 48.3068 61.1787 53.8535 58.704C59.4855 56.144 66.5255 54.864 74.9735 54.864C80.6055 54.864 86.1522 55.5467 91.6135 56.912C97.0748 58.192 101.896 60.1547 106.077 62.8L99.6775 78.544C95.4962 76.1547 91.3148 74.4053 87.1335 73.296C82.9522 72.1013 78.8562 71.504 74.8455 71.504C70.8348 71.504 67.5495 71.9733 64.9895 72.912C62.4295 73.8507 60.5948 75.088 59.4855 76.624C58.3762 78.0747 57.8215 79.7813 57.8215 81.744C57.8215 84.048 58.7602 85.9253 60.6375 87.376C62.5148 88.7413 64.9895 89.8507 68.0615 90.704C71.1335 91.5573 74.5042 92.4107 78.1735 93.264C81.9282 94.1173 85.6402 95.0987 89.3095 96.208C93.0642 97.3173 96.4775 98.8107 99.5495 100.688C102.621 102.565 105.096 105.04 106.973 108.112C108.936 111.184 109.917 115.067 109.917 119.76C109.917 124.795 108.509 129.403 105.693 133.584C102.877 137.765 98.6535 141.136 93.0215 143.696C87.4748 146.256 80.4348 147.536 71.9015 147.536ZM117.687 146V56.4H185.399V73.04H138.295V129.36H187.062V146H117.687ZM136.759 108.624V92.496H179.895V108.624H136.759ZM226.601 147.536C219.433 147.536 212.564 146.597 205.993 144.72C199.423 142.757 194.132 140.24 190.121 137.168L197.161 121.552C201.001 124.283 205.524 126.544 210.729 128.336C216.02 130.043 221.353 130.896 226.729 130.896C230.825 130.896 234.111 130.512 236.585 129.744C239.145 128.891 241.023 127.739 242.217 126.288C243.412 124.837 244.009 123.173 244.009 121.296C244.009 118.907 243.071 117.029 241.193 115.664C239.316 114.213 236.841 113.061 233.769 112.208C230.697 111.269 227.284 110.416 223.529 109.648C219.86 108.795 216.148 107.771 212.393 106.576C208.724 105.381 205.353 103.845 202.281 101.968C199.209 100.091 196.692 97.616 194.729 94.544C192.852 91.472 191.913 87.5467 191.913 82.768C191.913 77.648 193.279 72.9973 196.009 68.816C198.825 64.5493 203.007 61.1787 208.553 58.704C214.185 56.144 221.225 54.864 229.673 54.864C235.305 54.864 240.852 55.5467 246.313 56.912C251.775 58.192 256.596 60.1547 260.777 62.8L254.377 78.544C250.196 76.1547 246.015 74.4053 241.833 73.296C237.652 72.1013 233.556 71.504 229.545 71.504C225.535 71.504 222.249 71.9733 219.689 72.912C217.129 73.8507 215.295 75.088 214.185 76.624C213.076 78.0747 212.521 79.7813 212.521 81.744C212.521 84.048 213.46 85.9253 215.337 87.376C217.215 88.7413 219.689 89.8507 222.761 90.704C225.833 91.5573 229.204 92.4107 232.873 93.264C236.628 94.1173 240.34 95.0987 244.009 96.208C247.764 97.3173 251.177 98.8107 254.249 100.688C257.321 102.565 259.796 105.04 261.673 108.112C263.636 111.184 264.617 115.067 264.617 119.76C264.617 124.795 263.209 129.403 260.393 133.584C257.577 137.765 253.353 141.136 247.721 143.696C242.175 146.256 235.135 147.536 226.601 147.536Z" fill="#E8702A"/>
</svg>
