<svg width="1180" height="200" viewBox="0 0 1180 200" fill="none" xmlns="http://www.w3.org/2000/svg">
<rect x="100" width="980" height="200" fill="#2EC4B6"/>
<circle cx="1080" cy="100" r="100" fill="#2EC4B6"/>
<circle cx="100" cy="100" r="100" fill="#2EC4B6"/>
<rect x="100" y="15" width="980" height="170" fill="#FDFFFC"/>
<circle cx="1080" cy="100" r="85" fill="#FDFFFC"/>
<circle cx="100" cy="100" r="85" fill="#FDFFFC"/>
<path d="M96.3797 152.704C88.4277 152.704 80.8071 151.663 73.5177 149.58C66.2284 147.403 60.359 144.61 55.9097 141.202L63.7197 123.878C67.9797 126.907 72.9971 129.416 78.7717 131.404C84.6411 133.297 90.5577 134.244 96.5217 134.244C101.066 134.244 104.71 133.818 107.456 132.966C110.296 132.019 112.378 130.741 113.704 129.132C115.029 127.523 115.692 125.677 115.692 123.594C115.692 120.943 114.65 118.861 112.568 117.346C110.485 115.737 107.74 114.459 104.332 113.512C100.924 112.471 97.137 111.524 92.9717 110.672C88.9011 109.725 84.7831 108.589 80.6177 107.264C76.5471 105.939 72.8077 104.235 69.3997 102.152C65.9917 100.069 63.199 97.324 61.0217 93.916C58.939 90.508 57.8977 86.1533 57.8977 80.852C57.8977 75.172 59.4124 70.0127 62.4417 65.374C65.5657 60.6407 70.2044 56.9013 76.3577 54.156C82.6057 51.316 90.4157 49.896 99.7877 49.896C106.036 49.896 112.189 50.6533 118.248 52.168C124.306 53.588 129.655 55.7653 134.294 58.7L127.194 76.166C122.555 73.5153 117.916 71.5747 113.278 70.344C108.639 69.0187 104.095 68.356 99.6457 68.356C95.1964 68.356 91.5517 68.8767 88.7117 69.918C85.8717 70.9593 83.8364 72.332 82.6057 74.036C81.3751 75.6453 80.7597 77.5387 80.7597 79.716C80.7597 82.272 81.8011 84.3547 83.8837 85.964C85.9664 87.4787 88.7117 88.7093 92.1197 89.656C95.5277 90.6027 99.2671 91.5493 103.338 92.496C107.503 93.4427 111.621 94.5313 115.692 95.762C119.857 96.9927 123.644 98.6493 127.052 100.732C130.46 102.815 133.205 105.56 135.288 108.968C137.465 112.376 138.554 116.683 138.554 121.89C138.554 127.475 136.992 132.587 133.868 137.226C130.744 141.865 126.058 145.604 119.81 148.444C113.656 151.284 105.846 152.704 96.3797 152.704ZM151.432 151V51.6H226.55V70.06H174.294V132.54H228.396V151H151.432ZM172.59 109.536V91.644H220.444V109.536H172.59ZM276.52 152.704C268.568 152.704 260.947 151.663 253.658 149.58C246.369 147.403 240.499 144.61 236.05 141.202L243.86 123.878C248.12 126.907 253.137 129.416 258.912 131.404C264.781 133.297 270.698 134.244 276.662 134.244C281.206 134.244 284.851 133.818 287.596 132.966C290.436 132.019 292.519 130.741 293.844 129.132C295.169 127.523 295.832 125.677 295.832 123.594C295.832 120.943 294.791 118.861 292.708 117.346C290.625 115.737 287.88 114.459 284.472 113.512C281.064 112.471 277.277 111.524 273.112 110.672C269.041 109.725 264.923 108.589 260.758 107.264C256.687 105.939 252.948 104.235 249.54 102.152C246.132 100.069 243.339 97.324 241.162 93.916C239.079 90.508 238.038 86.1533 238.038 80.852C238.038 75.172 239.553 70.0127 242.582 65.374C245.706 60.6407 250.345 56.9013 256.498 54.156C262.746 51.316 270.556 49.896 279.928 49.896C286.176 49.896 292.329 50.6533 298.388 52.168C304.447 53.588 309.795 55.7653 314.434 58.7L307.334 76.166C302.695 73.5153 298.057 71.5747 293.418 70.344C288.779 69.0187 284.235 68.356 279.786 68.356C275.337 68.356 271.692 68.8767 268.852 69.918C266.012 70.9593 263.977 72.332 262.746 74.036C261.515 75.6453 260.9 77.5387 260.9 79.716C260.9 82.272 261.941 84.3547 264.024 85.964C266.107 87.4787 268.852 88.7093 272.26 89.656C275.668 90.6027 279.407 91.5493 283.478 92.496C287.643 93.4427 291.761 94.5313 295.832 95.762C299.997 96.9927 303.784 98.6493 307.192 100.732C310.6 102.815 313.345 105.56 315.428 108.968C317.605 112.376 318.694 116.683 318.694 121.89C318.694 127.475 317.132 132.587 314.008 137.226C310.884 141.865 306.198 145.604 299.95 148.444C293.797 151.284 285.987 152.704 276.52 152.704ZM368.948 151V51.6H391.952V151H368.948ZM411.139 151V74.604H432.297V95.762L428.321 89.372C431.067 84.26 434.995 80.3313 440.107 77.586C445.219 74.8407 451.041 73.468 457.573 73.468C463.632 73.468 469.028 74.6987 473.761 77.16C478.589 79.5267 482.376 83.2187 485.121 88.236C487.867 93.1587 489.239 99.5013 489.239 107.264V151H467.087V110.672C467.087 104.519 465.715 99.9747 462.969 97.04C460.319 94.1053 456.532 92.638 451.609 92.638C448.107 92.638 444.935 93.3953 442.095 94.91C439.35 96.33 437.173 98.5547 435.563 101.584C434.049 104.613 433.291 108.495 433.291 113.228V151H411.139ZM537.719 152.136C528.726 152.136 521.72 149.864 516.703 145.32C511.686 140.681 509.177 133.818 509.177 124.73V57.706H531.329V124.446C531.329 127.665 532.181 130.173 533.885 131.972C535.589 133.676 537.908 134.528 540.843 134.528C544.346 134.528 547.328 133.581 549.789 131.688L555.753 147.308C553.481 148.917 550.736 150.148 547.517 151C544.393 151.757 541.127 152.136 537.719 152.136ZM497.391 91.644V74.604H550.357V91.644H497.391ZM600.905 152.136C592.195 152.136 584.527 150.432 577.901 147.024C571.369 143.616 566.304 138.977 562.707 133.108C559.109 127.144 557.311 120.375 557.311 112.802C557.311 105.134 559.062 98.3653 562.565 92.496C566.162 86.532 571.037 81.8933 577.191 78.58C583.344 75.172 590.302 73.468 598.065 73.468C605.543 73.468 612.265 75.0773 618.229 78.296C624.287 81.42 629.068 85.964 632.571 91.928C636.073 97.7973 637.825 104.85 637.825 113.086C637.825 113.938 637.777 114.932 637.683 116.068C637.588 117.109 637.493 118.103 637.399 119.05H575.345V106.128H625.755L617.235 109.962C617.235 105.986 616.43 102.531 614.821 99.596C613.211 96.6613 610.987 94.3893 608.147 92.78C605.307 91.076 601.993 90.224 598.207 90.224C594.42 90.224 591.059 91.076 588.125 92.78C585.285 94.3893 583.06 96.7087 581.451 99.738C579.841 102.673 579.037 106.175 579.037 110.246V113.654C579.037 117.819 579.936 121.511 581.735 124.73C583.628 127.854 586.231 130.268 589.545 131.972C592.953 133.581 596.929 134.386 601.473 134.386C605.543 134.386 609.093 133.771 612.123 132.54C615.247 131.309 618.087 129.463 620.643 127.002L632.429 139.782C628.926 143.758 624.524 146.835 619.223 149.012C613.921 151.095 607.815 152.136 600.905 152.136ZM649.733 151V74.604H670.891V96.188L667.909 89.94C670.181 84.544 673.825 80.4733 678.843 77.728C683.86 74.888 689.966 73.468 697.161 73.468V93.916C696.214 93.8213 695.362 93.774 694.605 93.774C693.847 93.6793 693.043 93.632 692.191 93.632C686.132 93.632 681.209 95.3833 677.423 98.886C673.731 102.294 671.885 107.643 671.885 114.932V151H649.733ZM749.36 151V136.09L747.94 132.824V106.128C747.94 101.395 746.473 97.7027 743.538 95.052C740.698 92.4013 736.296 91.076 730.332 91.076C726.261 91.076 722.238 91.7387 718.262 93.064C714.381 94.2947 711.067 95.9987 708.322 98.176L700.37 82.698C704.535 79.7633 709.553 77.4913 715.422 75.882C721.291 74.2727 727.255 73.468 733.314 73.468C744.958 73.468 753.999 76.2133 760.436 81.704C766.873 87.1947 770.092 95.762 770.092 107.406V151H749.36ZM726.072 152.136C720.108 152.136 714.996 151.142 710.736 149.154C706.476 147.071 703.21 144.279 700.938 140.776C698.666 137.273 697.53 133.345 697.53 128.99C697.53 124.446 698.619 120.47 700.796 117.062C703.068 113.654 706.618 111.003 711.446 109.11C716.274 107.122 722.569 106.128 730.332 106.128H750.638V119.05H732.746C727.539 119.05 723.942 119.902 721.954 121.606C720.061 123.31 719.114 125.44 719.114 127.996C719.114 130.836 720.203 133.108 722.38 134.812C724.652 136.421 727.729 137.226 731.61 137.226C735.302 137.226 738.615 136.374 741.55 134.67C744.485 132.871 746.615 130.268 747.94 126.86L751.348 137.084C749.739 142.007 746.804 145.746 742.544 148.302C738.284 150.858 732.793 152.136 726.072 152.136ZM824.775 152.136C816.539 152.136 809.203 150.479 802.765 147.166C796.328 143.758 791.263 139.072 787.571 133.108C783.974 127.144 782.175 120.375 782.175 112.802C782.175 105.134 783.974 98.3653 787.571 92.496C791.263 86.532 796.328 81.8933 802.765 78.58C809.203 75.172 816.539 73.468 824.775 73.468C832.822 73.468 839.827 75.172 845.791 78.58C851.755 81.8933 856.157 86.674 858.997 92.922L841.815 102.152C839.827 98.5547 837.319 95.904 834.289 94.2C831.355 92.496 828.136 91.644 824.633 91.644C820.847 91.644 817.439 92.496 814.409 94.2C811.38 95.904 808.966 98.318 807.167 101.442C805.463 104.566 804.611 108.353 804.611 112.802C804.611 117.251 805.463 121.038 807.167 124.162C808.966 127.286 811.38 129.7 814.409 131.404C817.439 133.108 820.847 133.96 824.633 133.96C828.136 133.96 831.355 133.155 834.289 131.546C837.319 129.842 839.827 127.144 841.815 123.452L858.997 132.824C856.157 138.977 851.755 143.758 845.791 147.166C839.827 150.479 832.822 152.136 824.775 152.136ZM901.261 152.136C892.268 152.136 885.263 149.864 880.245 145.32C875.228 140.681 872.719 133.818 872.719 124.73V57.706H894.871V124.446C894.871 127.665 895.723 130.173 897.427 131.972C899.131 133.676 901.451 134.528 904.385 134.528C907.888 134.528 910.87 133.581 913.331 131.688L919.295 147.308C917.023 148.917 914.278 150.148 911.059 151C907.935 151.757 904.669 152.136 901.261 152.136ZM860.933 91.644V74.604H913.899V91.644H860.933ZM928.89 151V74.604H951.042V151H928.89ZM939.966 63.954C935.896 63.954 932.582 62.7707 930.026 60.404C927.47 58.0373 926.192 55.1027 926.192 51.6C926.192 48.0973 927.47 45.1627 930.026 42.796C932.582 40.4293 935.896 39.246 939.966 39.246C944.037 39.246 947.35 40.382 949.906 42.654C952.462 44.8313 953.74 47.6713 953.74 51.174C953.74 54.866 952.462 57.9427 949.906 60.404C947.445 62.7707 944.132 63.954 939.966 63.954ZM989.493 151L957.401 74.604H980.263L1006.96 140.35H995.599L1023.29 74.604H1044.59L1012.36 151H989.493ZM1086.62 152.136C1077.91 152.136 1070.24 150.432 1063.62 147.024C1057.09 143.616 1052.02 138.977 1048.42 133.108C1044.83 127.144 1043.03 120.375 1043.03 112.802C1043.03 105.134 1044.78 98.3653 1048.28 92.496C1051.88 86.532 1056.75 81.8933 1062.91 78.58C1069.06 75.172 1076.02 73.468 1083.78 73.468C1091.26 73.468 1097.98 75.0773 1103.95 78.296C1110 81.42 1114.79 85.964 1118.29 91.928C1121.79 97.7973 1123.54 104.85 1123.54 113.086C1123.54 113.938 1123.49 114.932 1123.4 116.068C1123.31 117.109 1123.21 118.103 1123.12 119.05H1061.06V106.128H1111.47L1102.95 109.962C1102.95 105.986 1102.15 102.531 1100.54 99.596C1098.93 96.6613 1096.7 94.3893 1093.86 92.78C1091.02 91.076 1087.71 90.224 1083.92 90.224C1080.14 90.224 1076.78 91.076 1073.84 92.78C1071 94.3893 1068.78 96.7087 1067.17 99.738C1065.56 102.673 1064.75 106.175 1064.75 110.246V113.654C1064.75 117.819 1065.65 121.511 1067.45 124.73C1069.35 127.854 1071.95 130.268 1075.26 131.972C1078.67 133.581 1082.65 134.386 1087.19 134.386C1091.26 134.386 1094.81 133.771 1097.84 132.54C1100.96 131.309 1103.8 129.463 1106.36 127.002L1118.15 139.782C1114.64 143.758 1110.24 146.835 1104.94 149.012C1099.64 151.095 1093.53 152.136 1086.62 152.136Z" fill="#E8702A"/>
</svg>
